<svg width="488" height="363" viewBox="0 0 488 363" fill="none" xmlns="http://www.w3.org/2000/svg">
<g filter="url(#filter0_d_347_141)">
<rect x="108.929" y="0.740723" width="177.34" height="221.034" transform="rotate(17.4704 108.929 0.740723)" fill="#CBD5E1"/>
</g>
<rect x="73.5278" y="163.282" width="148.034" height="40.6362" transform="rotate(17.4704 73.5278 163.282)" fill="white"/>
<rect x="119.276" y="17.9258" width="148.034" height="40.6362" transform="rotate(17.4704 119.276 17.9258)" fill="white"/>
<rect x="104.026" y="66.3774" width="148.034" height="40.6362" transform="rotate(17.4704 104.026 66.3774)" fill="white"/>
<rect x="88.7771" y="114.829" width="148.034" height="40.6362" transform="rotate(17.4704 88.7771 114.829)" fill="white"/>
<ellipse cx="128.605" cy="30.6937" rx="5.67195" ry="5.47026" transform="rotate(17.4704 128.605 30.6937)" fill="#FF8F8F"/>
<rect x="119.911" y="39.4268" width="131.265" height="6.25172" transform="rotate(17.4704 119.911 39.4268)" fill="#E2E8F0"/>
<rect x="116.861" y="49.1162" width="68.0633" height="6.25172" transform="rotate(17.4704 116.861 49.1162)" fill="#E2E8F0"/>
<ellipse cx="113.356" cy="79.1453" rx="5.67195" ry="5.47026" transform="rotate(17.4704 113.356 79.1453)" fill="#FFDB59"/>
<rect x="104.661" y="87.8779" width="131.265" height="6.25172" transform="rotate(17.4704 104.661 87.8779)" fill="#E2E8F0"/>
<rect x="101.612" y="97.5688" width="68.0633" height="6.25172" transform="rotate(17.4704 101.612 97.5688)" fill="#E2E8F0"/>
<ellipse cx="98.1068" cy="127.597" rx="5.67195" ry="5.47026" transform="rotate(17.4704 98.1068 127.597)" fill="#48C8FF"/>
<rect x="89.412" y="136.33" width="131.265" height="6.25172" transform="rotate(17.4704 89.412 136.33)" fill="#E2E8F0"/>
<rect x="86.362" y="146.02" width="68.0633" height="6.25172" transform="rotate(17.4704 86.362 146.02)" fill="#E2E8F0"/>
<rect x="74.506" y="184.481" width="131.265" height="6.25172" transform="rotate(17.4704 74.506 184.481)" fill="#E2E8F0"/>
<rect x="71.4561" y="194.172" width="68.0633" height="6.25172" transform="rotate(17.4704 71.4561 194.172)" fill="#E2E8F0"/>
<ellipse cx="82.8574" cy="176.049" rx="5.67195" ry="5.47026" transform="rotate(17.4704 82.8574 176.049)" fill="#ACFFAA"/>
<g filter="url(#filter1_d_347_141)">
<rect x="169.07" y="204.199" width="242.46" height="128.821" transform="rotate(-8.88231 169.07 204.199)" fill="#64748B"/>
</g>
<ellipse cx="200.556" cy="228.321" rx="13.2937" ry="12.821" transform="rotate(-8.88231 200.556 228.321)" fill="#FFDB59"/>
<rect x="223.304" y="220.441" width="115.066" height="10.9894" transform="rotate(-8.88231 223.304 220.441)" fill="#D9D9D9"/>
<rect x="198.262" y="299.742" width="102.737" height="8.54735" transform="rotate(-8.88231 198.262 299.742)" fill="#D9D9D9"/>
<rect x="191.852" y="258.726" width="204.3" height="8.54735" transform="rotate(-8.88231 191.852 258.726)" fill="#D9D9D9"/>
<rect x="194.021" y="272.6" width="162.618" height="8.54735" transform="rotate(-8.88231 194.021 272.6)" fill="#D9D9D9"/>
<rect x="196.189" y="286.473" width="180.817" height="7.93682" transform="rotate(-8.88231 196.189 286.473)" fill="#D9D9D9"/>
<g filter="url(#filter2_d_347_141)">
<path d="M304.688 128.792L306.226 124.584L310.433 126.123L321.816 143.103L321.958 144.347L321.573 145.399L320.83 146.618L319.201 147.811L317.765 148.479L316.328 149.146L314.366 149.621L312.595 149.57L311.543 149.186L310.684 148.275L304.688 128.792Z" fill="#FF8F8F"/>
</g>
<g filter="url(#filter3_d_347_141)">
<path d="M463.786 120.285L467.019 123.387L463.918 126.62L443.792 130.207L442.596 129.835L441.788 129.06L440.972 127.889L440.534 125.917L440.502 124.334L440.469 122.75L440.823 120.762L441.582 119.162L442.358 118.354L443.537 117.933L463.786 120.285Z" fill="#FF8F8F"/>
</g>
<g filter="url(#filter4_d_347_141)">
<path d="M51.7563 308.28L56.2321 308.081L56.4308 312.557L45.1352 329.595L44.0412 330.204L42.9222 330.254L41.5111 330.036L39.783 328.992L38.6144 327.923L37.4458 326.853L36.2523 325.225L35.6183 323.571L35.5686 322.452L36.0784 321.308L51.7563 308.28Z" fill="#48C8FF"/>
</g>
<g filter="url(#filter5_d_347_141)">
<path d="M136.4 334.017L138.698 330.171L142.544 332.469L150.551 351.278L150.457 352.527L149.882 353.489L148.924 354.547L147.101 355.415L145.565 355.802L144.029 356.189L142.012 356.288L140.283 355.908L139.321 355.333L138.647 354.278L136.4 334.017Z" fill="#FFDB59"/>
</g>
<g filter="url(#filter6_d_347_141)">
<path d="M8.64096 251.158L4.3732 249.795L5.73624 245.527L22.2321 233.453L23.4694 233.26L24.5363 233.601L25.7848 234.294L27.0445 235.872L27.7706 237.279L28.4968 238.687L29.0526 240.628L29.075 242.399L28.7342 243.466L27.86 244.363L8.64096 251.158Z" fill="#ACFFAA"/>
</g>
<g filter="url(#filter7_d_347_141)">
<path d="M462.392 218.792L458.243 217.103L459.933 212.953L477.315 202.194L478.564 202.098L479.601 202.521L480.792 203.308L481.926 204.979L482.541 206.439L483.155 207.899L483.559 209.877L483.444 211.644L483.022 212.682L482.08 213.508L462.392 218.792Z" fill="#ACFFAA"/>
</g>
<g filter="url(#filter8_d_347_141)">
<path d="M120.532 283.992L120.196 288.459L115.729 288.124L100.157 274.879L99.682 273.721L99.7659 272.604L100.15 271.229L101.393 269.637L102.594 268.604L103.794 267.571L105.554 266.58L107.271 266.148L108.388 266.231L109.463 266.874L120.532 283.992Z" fill="#FF8F8F"/>
</g>
<g filter="url(#filter9_d_347_141)">
<path d="M380.885 79.2501L385.12 77.7902L386.58 82.0258L380.581 101.568L379.704 102.463L378.645 102.828L377.23 103.019L375.277 102.508L373.853 101.814L372.429 101.12L370.823 99.8964L369.746 98.4906L369.381 97.4317L369.545 96.1903L380.885 79.2501Z" fill="#FFDB59"/>
</g>
<g filter="url(#filter10_d_347_141)">
<path d="M310.461 46.4072L306.544 44.2341L308.717 40.3163L327.259 31.7092L328.51 31.7627L329.489 32.306L330.578 33.2299L331.504 35.0243L331.94 36.547L332.376 38.0697L332.541 40.0822L332.216 41.823L331.672 42.8024L330.639 43.5103L310.461 46.4072Z" fill="#48C8FF"/>
</g>
<defs>
<filter id="filter0_d_347_141" x="38.5715" y="0.740723" width="243.517" height="272.078" filterUnits="userSpaceOnUse" color-interpolation-filters="sRGB">
<feFlood flood-opacity="0" result="BackgroundImageFix"/>
<feColorMatrix in="SourceAlpha" type="matrix" values="0 0 0 0 0 0 0 0 0 0 0 0 0 0 0 0 0 0 127 0" result="hardAlpha"/>
<feOffset dy="4"/>
<feGaussianBlur stdDeviation="2"/>
<feComposite in2="hardAlpha" operator="out"/>
<feColorMatrix type="matrix" values="0 0 0 0 0 0 0 0 0 0 0 0 0 0 0 0 0 0 0.25 0"/>
<feBlend mode="normal" in2="BackgroundImageFix" result="effect1_dropShadow_347_141"/>
<feBlend mode="normal" in="SourceGraphic" in2="effect1_dropShadow_347_141" result="shape"/>
</filter>
<filter id="filter1_d_347_141" x="165.07" y="166.762" width="267.443" height="172.713" filterUnits="userSpaceOnUse" color-interpolation-filters="sRGB">
<feFlood flood-opacity="0" result="BackgroundImageFix"/>
<feColorMatrix in="SourceAlpha" type="matrix" values="0 0 0 0 0 0 0 0 0 0 0 0 0 0 0 0 0 0 127 0" result="hardAlpha"/>
<feOffset dy="4"/>
<feGaussianBlur stdDeviation="2"/>
<feComposite in2="hardAlpha" operator="out"/>
<feColorMatrix type="matrix" values="0 0 0 0 0 0 0 0 0 0 0 0 0 0 0 0 0 0 0.25 0"/>
<feBlend mode="normal" in2="BackgroundImageFix" result="effect1_dropShadow_347_141"/>
<feBlend mode="normal" in="SourceGraphic" in2="effect1_dropShadow_347_141" result="shape"/>
</filter>
<filter id="filter2_d_347_141" x="300.688" y="122.584" width="25.2703" height="33.0366" filterUnits="userSpaceOnUse" color-interpolation-filters="sRGB">
<feFlood flood-opacity="0" result="BackgroundImageFix"/>
<feColorMatrix in="SourceAlpha" type="matrix" values="0 0 0 0 0 0 0 0 0 0 0 0 0 0 0 0 0 0 127 0" result="hardAlpha"/>
<feOffset dy="2"/>
<feGaussianBlur stdDeviation="2"/>
<feComposite in2="hardAlpha" operator="out"/>
<feColorMatrix type="matrix" values="0 0 0 0 0 0 0 0 0 0 0 0 0 0 0 0 0 0 0.25 0"/>
<feBlend mode="normal" in2="BackgroundImageFix" result="effect1_dropShadow_347_141"/>
<feBlend mode="normal" in="SourceGraphic" in2="effect1_dropShadow_347_141" result="shape"/>
</filter>
<filter id="filter3_d_347_141" x="436.469" y="115.934" width="34.5504" height="20.2729" filterUnits="userSpaceOnUse" color-interpolation-filters="sRGB">
<feFlood flood-opacity="0" result="BackgroundImageFix"/>
<feColorMatrix in="SourceAlpha" type="matrix" values="0 0 0 0 0 0 0 0 0 0 0 0 0 0 0 0 0 0 127 0" result="hardAlpha"/>
<feOffset dy="2"/>
<feGaussianBlur stdDeviation="2"/>
<feComposite in2="hardAlpha" operator="out"/>
<feColorMatrix type="matrix" values="0 0 0 0 0 0 0 0 0 0 0 0 0 0 0 0 0 0 0.25 0"/>
<feBlend mode="normal" in2="BackgroundImageFix" result="effect1_dropShadow_347_141"/>
<feBlend mode="normal" in="SourceGraphic" in2="effect1_dropShadow_347_141" result="shape"/>
</filter>
<filter id="filter4_d_347_141" x="31.5686" y="306.081" width="28.8622" height="30.1729" filterUnits="userSpaceOnUse" color-interpolation-filters="sRGB">
<feFlood flood-opacity="0" result="BackgroundImageFix"/>
<feColorMatrix in="SourceAlpha" type="matrix" values="0 0 0 0 0 0 0 0 0 0 0 0 0 0 0 0 0 0 127 0" result="hardAlpha"/>
<feOffset dy="2"/>
<feGaussianBlur stdDeviation="2"/>
<feComposite in2="hardAlpha" operator="out"/>
<feColorMatrix type="matrix" values="0 0 0 0 0 0 0 0 0 0 0 0 0 0 0 0 0 0 0.25 0"/>
<feBlend mode="normal" in2="BackgroundImageFix" result="effect1_dropShadow_347_141"/>
<feBlend mode="normal" in="SourceGraphic" in2="effect1_dropShadow_347_141" result="shape"/>
</filter>
<filter id="filter5_d_347_141" x="132.4" y="328.171" width="22.1505" height="34.1172" filterUnits="userSpaceOnUse" color-interpolation-filters="sRGB">
<feFlood flood-opacity="0" result="BackgroundImageFix"/>
<feColorMatrix in="SourceAlpha" type="matrix" values="0 0 0 0 0 0 0 0 0 0 0 0 0 0 0 0 0 0 127 0" result="hardAlpha"/>
<feOffset dy="2"/>
<feGaussianBlur stdDeviation="2"/>
<feComposite in2="hardAlpha" operator="out"/>
<feColorMatrix type="matrix" values="0 0 0 0 0 0 0 0 0 0 0 0 0 0 0 0 0 0 0.25 0"/>
<feBlend mode="normal" in2="BackgroundImageFix" result="effect1_dropShadow_347_141"/>
<feBlend mode="normal" in="SourceGraphic" in2="effect1_dropShadow_347_141" result="shape"/>
</filter>
<filter id="filter6_d_347_141" x="0.373169" y="231.26" width="32.7018" height="25.8975" filterUnits="userSpaceOnUse" color-interpolation-filters="sRGB">
<feFlood flood-opacity="0" result="BackgroundImageFix"/>
<feColorMatrix in="SourceAlpha" type="matrix" values="0 0 0 0 0 0 0 0 0 0 0 0 0 0 0 0 0 0 127 0" result="hardAlpha"/>
<feOffset dy="2"/>
<feGaussianBlur stdDeviation="2"/>
<feComposite in2="hardAlpha" operator="out"/>
<feColorMatrix type="matrix" values="0 0 0 0 0 0 0 0 0 0 0 0 0 0 0 0 0 0 0.25 0"/>
<feBlend mode="normal" in2="BackgroundImageFix" result="effect1_dropShadow_347_141"/>
<feBlend mode="normal" in="SourceGraphic" in2="effect1_dropShadow_347_141" result="shape"/>
</filter>
<filter id="filter7_d_347_141" x="454.243" y="200.098" width="33.3159" height="24.6943" filterUnits="userSpaceOnUse" color-interpolation-filters="sRGB">
<feFlood flood-opacity="0" result="BackgroundImageFix"/>
<feColorMatrix in="SourceAlpha" type="matrix" values="0 0 0 0 0 0 0 0 0 0 0 0 0 0 0 0 0 0 127 0" result="hardAlpha"/>
<feOffset dy="2"/>
<feGaussianBlur stdDeviation="2"/>
<feComposite in2="hardAlpha" operator="out"/>
<feColorMatrix type="matrix" values="0 0 0 0 0 0 0 0 0 0 0 0 0 0 0 0 0 0 0.25 0"/>
<feBlend mode="normal" in2="BackgroundImageFix" result="effect1_dropShadow_347_141"/>
<feBlend mode="normal" in="SourceGraphic" in2="effect1_dropShadow_347_141" result="shape"/>
</filter>
<filter id="filter8_d_347_141" x="95.682" y="264.147" width="28.8499" height="30.3115" filterUnits="userSpaceOnUse" color-interpolation-filters="sRGB">
<feFlood flood-opacity="0" result="BackgroundImageFix"/>
<feColorMatrix in="SourceAlpha" type="matrix" values="0 0 0 0 0 0 0 0 0 0 0 0 0 0 0 0 0 0 127 0" result="hardAlpha"/>
<feOffset dy="2"/>
<feGaussianBlur stdDeviation="2"/>
<feComposite in2="hardAlpha" operator="out"/>
<feColorMatrix type="matrix" values="0 0 0 0 0 0 0 0 0 0 0 0 0 0 0 0 0 0 0.25 0"/>
<feBlend mode="normal" in2="BackgroundImageFix" result="effect1_dropShadow_347_141"/>
<feBlend mode="normal" in="SourceGraphic" in2="effect1_dropShadow_347_141" result="shape"/>
</filter>
<filter id="filter9_d_347_141" x="365.381" y="75.79" width="25.1992" height="33.229" filterUnits="userSpaceOnUse" color-interpolation-filters="sRGB">
<feFlood flood-opacity="0" result="BackgroundImageFix"/>
<feColorMatrix in="SourceAlpha" type="matrix" values="0 0 0 0 0 0 0 0 0 0 0 0 0 0 0 0 0 0 127 0" result="hardAlpha"/>
<feOffset dy="2"/>
<feGaussianBlur stdDeviation="2"/>
<feComposite in2="hardAlpha" operator="out"/>
<feColorMatrix type="matrix" values="0 0 0 0 0 0 0 0 0 0 0 0 0 0 0 0 0 0 0.25 0"/>
<feBlend mode="normal" in2="BackgroundImageFix" result="effect1_dropShadow_347_141"/>
<feBlend mode="normal" in="SourceGraphic" in2="effect1_dropShadow_347_141" result="shape"/>
</filter>
<filter id="filter10_d_347_141" x="302.544" y="29.709" width="33.9973" height="22.6982" filterUnits="userSpaceOnUse" color-interpolation-filters="sRGB">
<feFlood flood-opacity="0" result="BackgroundImageFix"/>
<feColorMatrix in="SourceAlpha" type="matrix" values="0 0 0 0 0 0 0 0 0 0 0 0 0 0 0 0 0 0 127 0" result="hardAlpha"/>
<feOffset dy="2"/>
<feGaussianBlur stdDeviation="2"/>
<feComposite in2="hardAlpha" operator="out"/>
<feColorMatrix type="matrix" values="0 0 0 0 0 0 0 0 0 0 0 0 0 0 0 0 0 0 0.25 0"/>
<feBlend mode="normal" in2="BackgroundImageFix" result="effect1_dropShadow_347_141"/>
<feBlend mode="normal" in="SourceGraphic" in2="effect1_dropShadow_347_141" result="shape"/>
</filter>
</defs>
</svg>
