<svg id="visual" viewBox="0 0 900 600" width="900" height="600" xmlns="http://www.w3.org/2000/svg" xmlns:xlink="http://www.w3.org/1999/xlink" version="1.1"><rect x="0" y="0" width="900" height="600" fill="#001220"></rect><defs><linearGradient id="grad1_0" x1="33.3%" y1="0%" x2="100%" y2="100%"><stop offset="20%" stop-color="#001220" stop-opacity="1"></stop><stop offset="80%" stop-color="#001220" stop-opacity="1"></stop></linearGradient></defs><defs><linearGradient id="grad2_0" x1="0%" y1="0%" x2="66.7%" y2="100%"><stop offset="20%" stop-color="#001220" stop-opacity="1"></stop><stop offset="80%" stop-color="#001220" stop-opacity="1"></stop></linearGradient></defs><g transform="translate(900, 0)"><path d="M0 486.7C-72.3 488.6 -144.5 490.5 -186.3 449.7C-228 408.9 -239.2 325.5 -276.5 276.5C-313.8 227.5 -377.3 212.9 -416.7 172.6C-456.1 132.3 -471.4 66.1 -486.7 0L0 0Z" fill="#FBAE3C"></path></g><g transform="translate(0, 600)"><path d="M0 -486.7C61.9 -464.5 123.7 -442.3 169.1 -408.4C214.6 -374.4 243.6 -328.7 293.4 -293.4C343.3 -258.2 414 -233.4 449.7 -186.3C485.4 -139.1 486.1 -69.6 486.7 0L0 0Z" fill="#FBAE3C"></path></g></svg>