<svg width="726" height="517" viewBox="0 0 726 517" fill="none" xmlns="http://www.w3.org/2000/svg">
<rect width="299.768" height="319.696" transform="matrix(1 0 0 -1 426.232 517)" fill="#E2E8F0"/>
<rect width="182.111" height="106.565" transform="matrix(1 0 0 -1 444.648 380.833)" fill="white"/>
<rect width="66.5014" height="106.565" transform="matrix(1 0 0 -1 444.648 500.226)" fill="white"/>
<rect width="182.111" height="106.565" transform="matrix(1 0 0 -1 524.45 500.226)" fill="white"/>
<rect width="182.111" height="46.3757" transform="matrix(1 0 0 -1 524.45 260.454)" fill="white"/>
<rect x="532.635" y="233.812" width="164.719" height="7.89374" fill="#E2E8F0"/>
<rect width="66.5014" height="46.3757" transform="matrix(1 0 0 -1 444.648 260.454)" fill="white"/>
<rect width="66.5014" height="106.565" transform="matrix(1 0 0 -1 640.06 380.833)" fill="white"/>
<rect x="532.635" y="246.639" width="125.841" height="7.89374" fill="#E2E8F0"/>
<rect x="452.833" y="225.918" width="50.1318" height="28.6148" fill="#EBEBEB"/>
<rect x="452.833" y="225.918" width="50.1318" height="28.6148" fill="#E2E8F0"/>
<rect x="452.833" y="282.161" width="50.1318" height="90.778" fill="#E2E8F0"/>
<rect x="648.245" y="282.161" width="50.1318" height="42.9222" fill="#E2E8F0"/>
<rect x="648.245" y="329.524" width="50.1318" height="42.9222" fill="#E2E8F0"/>
<rect x="452.833" y="402.541" width="50.1318" height="42.9222" fill="#E2E8F0"/>
<rect x="452.833" y="449.903" width="50.1318" height="42.9222" fill="#E2E8F0"/>
<rect x="510.126" y="282.161" width="107.425" height="26.6414" fill="#E2E8F0"/>
<rect x="510.126" y="313.736" width="107.425" height="26.6414" fill="#E2E8F0"/>
<rect x="510.126" y="346.298" width="107.425" height="26.6414" fill="#E2E8F0"/>
<rect width="50.1318" height="90.778" transform="matrix(-1 0 0 1 698.376 402.541)" fill="#E2E8F0"/>
<rect width="108" height="30" transform="matrix(-1 0 0 1 641 427)" fill="#E2E8F0"/>
<rect width="108" height="30" transform="matrix(-1 0 0 1 641 463)" fill="#E2E8F0"/>
<ellipse cx="541.842" cy="411.421" rx="9.20788" ry="8.88046" fill="#48C8FF"/>
<ellipse cx="567.42" cy="411.421" rx="9.20788" ry="8.88046" fill="#ACFFAA"/>
<ellipse cx="618.208" cy="411.88" rx="9.20788" ry="8.88046" fill="#FF8F8F"/>
<ellipse cx="592.997" cy="411.421" rx="9.20788" ry="8.88046" fill="#FFDB59"/>
<rect x="307.541" y="17.7211" width="391.858" height="208.197" fill="#64748B"/>
<ellipse cx="351.798" cy="64.0968" rx="21.4851" ry="20.7211" fill="#48C8FF"/>
<rect x="390.088" y="57.1898" width="185.967" height="17.7609" fill="#D9D9D9"/>
<rect x="330.313" y="177.569" width="166.042" height="13.814" fill="#D9D9D9"/>
<rect x="330.313" y="110.472" width="330.186" height="13.814" fill="#D9D9D9"/>
<rect x="330.313" y="133.167" width="262.82" height="13.814" fill="#D9D9D9"/>
<rect x="330.313" y="155.861" width="292.233" height="12.8273" fill="#D9D9D9"/>
<rect x="49.4651" y="0.946869" width="223.919" height="265.427" fill="#E2E8F0"/>
<rect x="68.4413" y="210.131" width="186.915" height="51.3093" fill="white"/>
<rect x="68.4413" y="17.7211" width="186.915" height="51.3093" fill="white"/>
<rect x="68.4413" y="81.8577" width="186.915" height="51.3093" fill="white"/>
<rect x="68.4413" y="145.994" width="186.915" height="51.3093" fill="white"/>
<ellipse cx="84.5177" cy="29.5617" rx="7.16168" ry="6.90702" fill="#FF8F8F"/>
<rect x="77.356" y="43.3757" width="165.742" height="7.89374" fill="#E2E8F0"/>
<rect x="77.356" y="56.203" width="85.9402" height="7.89374" fill="#E2E8F0"/>
<ellipse cx="84.5177" cy="93.6983" rx="7.16168" ry="6.90702" fill="#FFDB59"/>
<rect x="77.356" y="107.512" width="165.742" height="7.89374" fill="#E2E8F0"/>
<rect x="77.356" y="120.34" width="85.9402" height="7.89374" fill="#E2E8F0"/>
<ellipse cx="84.5177" cy="157.835" rx="7.16168" ry="6.90702" fill="#48C8FF"/>
<rect x="77.356" y="171.649" width="165.742" height="7.89374" fill="#E2E8F0"/>
<rect x="77.356" y="184.476" width="85.9402" height="7.89374" fill="#E2E8F0"/>
<ellipse cx="84.5177" cy="221.972" rx="7.16168" ry="6.90702" fill="#ACFFAA"/>
<rect x="0.127075" y="235.786" width="391.858" height="208.197" fill="#64748B"/>
<ellipse cx="44.3836" cy="282.161" rx="21.4851" ry="20.7211" fill="#FFDB59"/>
<rect x="82.6735" y="275.254" width="185.967" height="17.7609" fill="#D9D9D9"/>
<rect x="22.8985" y="395.634" width="166.042" height="13.814" fill="#D9D9D9"/>
<rect x="22.8985" y="328.537" width="330.186" height="13.814" fill="#D9D9D9"/>
<rect x="22.8985" y="351.232" width="262.82" height="13.814" fill="#D9D9D9"/>
<rect x="22.8985" y="373.926" width="292.233" height="12.8273" fill="#D9D9D9"/>
<path d="M551.385 225.918C551.385 270.648 519.505 360.306 391.985 361.099" stroke="#CBD5E1" stroke-width="5"/>
<rect x="477.378" y="290.055" width="58.8262" height="56.2429" fill="#94A3B8"/>
<rect x="484.969" y="295.975" width="43.6452" height="44.4023" fill="#FF8F8F"/>
<path d="M148.141 235.786C148.141 191.382 180.021 102.379 307.541 101.592" stroke="#CBD5E1" stroke-width="5"/>
<rect x="169.015" y="112.446" width="58.8262" height="56.2429" fill="#94A3B8"/>
<rect x="176.606" y="118.366" width="43.6452" height="44.4023" fill="#ACFFAA"/>
</svg>
