<?xml version="1.0" encoding="utf-8"?>
<!-- Generator: Adobe Illustrator 25.2.3, SVG Export Plug-In . SVG Version: 6.00 Build 0)  -->
<svg version="1.1" id="Слой_1" xmlns="http://www.w3.org/2000/svg" xmlns:xlink="http://www.w3.org/1999/xlink" x="0px" y="0px"
	 viewBox="0 0 541.41 360.19" style="enable-background:new 0 0 541.41 360.19;" xml:space="preserve">
<style type="text/css">
	.st0{fill:url(#SVGID_1_);}
	.st1{fill:url(#SVGID_2_);}
	.st2{fill:#64A4FF;}
	.st3{fill:#BBD070;}
	.st4{fill:#97A43C;}
	.st5{fill:#48753A;}
	.st6{fill:#DBD8E3;}
	.st7{fill:#323657;}
	.st8{fill:#EEA987;}
	.st9{fill:#E8734D;}
	.st10{fill:#C4C1CC;}
	.st11{fill:#EFAA88;}
	.st12{fill:#EEA886;}
	.st13{fill:#16202E;}
	.st14{fill:#A77860;}
	.st15{fill:#4DA8F2;}
	.st16{fill:#FFC955;}
	.st17{clip-path:url(#SVGID_4_);fill:#96CBFF;}
	.st18{clip-path:url(#SVGID_4_);fill:#95CAFF;}
	.st19{clip-path:url(#SVGID_4_);fill:#94C9FF;}
	.st20{clip-path:url(#SVGID_4_);fill:#93C9FF;}
	.st21{clip-path:url(#SVGID_4_);fill:#92C8FF;}
	.st22{clip-path:url(#SVGID_4_);fill:#91C7FF;}
	.st23{clip-path:url(#SVGID_4_);fill:#90C6FF;}
	.st24{clip-path:url(#SVGID_4_);fill:#8FC6FF;}
	.st25{clip-path:url(#SVGID_4_);fill:#8EC5FF;}
	.st26{clip-path:url(#SVGID_4_);fill:#8DC4FF;}
	.st27{clip-path:url(#SVGID_4_);fill:#8CC3FF;}
	.st28{clip-path:url(#SVGID_4_);fill:#8BC2FF;}
	.st29{clip-path:url(#SVGID_4_);fill:#8AC2FF;}
	.st30{clip-path:url(#SVGID_4_);fill:#89C1FF;}
	.st31{clip-path:url(#SVGID_4_);fill:#88C0FF;}
	.st32{clip-path:url(#SVGID_4_);fill:#87BFFF;}
	.st33{clip-path:url(#SVGID_4_);fill:#86BFFF;}
	.st34{clip-path:url(#SVGID_4_);fill:#85BEFF;}
	.st35{clip-path:url(#SVGID_4_);fill:#84BDFF;}
	.st36{clip-path:url(#SVGID_4_);fill:#83BCFF;}
	.st37{clip-path:url(#SVGID_4_);fill:#82BBFF;}
	.st38{clip-path:url(#SVGID_4_);fill:#81BBFF;}
	.st39{clip-path:url(#SVGID_4_);fill:#80BAFF;}
	.st40{clip-path:url(#SVGID_4_);fill:#7FB9FF;}
	.st41{clip-path:url(#SVGID_4_);fill:#7EB8FF;}
	.st42{clip-path:url(#SVGID_4_);fill:#7DB7FF;}
	.st43{clip-path:url(#SVGID_4_);fill:#7CB7FF;}
	.st44{clip-path:url(#SVGID_4_);fill:#7BB6FF;}
	.st45{clip-path:url(#SVGID_4_);fill:#7AB5FF;}
	.st46{clip-path:url(#SVGID_4_);fill:#79B4FF;}
	.st47{clip-path:url(#SVGID_4_);fill:#78B4FF;}
	.st48{clip-path:url(#SVGID_4_);fill:#77B3FF;}
	.st49{clip-path:url(#SVGID_4_);fill:#76B2FF;}
	.st50{clip-path:url(#SVGID_4_);fill:#74B1FF;}
	.st51{clip-path:url(#SVGID_4_);fill:#73B0FF;}
	.st52{clip-path:url(#SVGID_4_);fill:#72B0FF;}
	.st53{clip-path:url(#SVGID_4_);fill:#71AFFF;}
	.st54{clip-path:url(#SVGID_4_);fill:#70AEFF;}
	.st55{clip-path:url(#SVGID_4_);fill:#6FADFF;}
	.st56{clip-path:url(#SVGID_4_);fill:#6EADFF;}
	.st57{clip-path:url(#SVGID_4_);fill:#6DACFF;}
	.st58{clip-path:url(#SVGID_4_);fill:#6CABFF;}
	.st59{clip-path:url(#SVGID_4_);fill:#6BAAFF;}
	.st60{clip-path:url(#SVGID_4_);fill:#6AA9FF;}
	.st61{clip-path:url(#SVGID_4_);fill:#69A9FF;}
	.st62{clip-path:url(#SVGID_4_);fill:#68A8FF;}
	.st63{clip-path:url(#SVGID_4_);fill:#67A7FF;}
	.st64{clip-path:url(#SVGID_4_);fill:#66A6FF;}
	.st65{clip-path:url(#SVGID_4_);fill:#65A6FF;}
	.st66{clip-path:url(#SVGID_4_);fill:#64A5FF;}
	.st67{clip-path:url(#SVGID_4_);fill:#63A4FF;}
	.st68{clip-path:url(#SVGID_4_);fill:#62A3FF;}
	.st69{clip-path:url(#SVGID_4_);fill:#61A2FF;}
	.st70{clip-path:url(#SVGID_4_);fill:#60A2FF;}
	.st71{clip-path:url(#SVGID_4_);fill:#5FA1FF;}
	.st72{clip-path:url(#SVGID_4_);fill:#5EA0FF;}
	.st73{clip-path:url(#SVGID_4_);fill:#5D9FFF;}
	.st74{clip-path:url(#SVGID_4_);fill:#5C9EFF;}
	.st75{clip-path:url(#SVGID_4_);fill:#5B9EFF;}
	.st76{clip-path:url(#SVGID_4_);fill:#5A9DFF;}
	.st77{clip-path:url(#SVGID_4_);fill:#599CFF;}
	.st78{clip-path:url(#SVGID_4_);fill:#589BFF;}
	.st79{clip-path:url(#SVGID_4_);fill:#579BFF;}
	.st80{clip-path:url(#SVGID_4_);fill:#569AFF;}
	.st81{clip-path:url(#SVGID_4_);fill:#5599FF;}
	.st82{fill:#CFA345;}
	.st83{fill:#6069A8;}
	.st84{fill:#202338;}
	.st85{fill:#464240;}
	.st86{fill:#EB4747;}
	.st87{fill:#5F8CC9;}
	.st88{fill:#5E5853;}
	.st89{fill:#91887F;}
	.st90{fill:#EDDAD3;}
	.st91{fill:#6E6760;}
	.st92{fill:#807066;}
	.st93{fill:#FFCB55;}
	.st94{fill:#CF8C6C;}
	.st95{fill:#3B3F66;}
	.st96{fill:#555C94;}
	.st97{fill:#354C70;}
	.st98{fill:#DEB135;}
	.st99{fill:#F2C344;}
	.st100{fill:#D9D0C4;}
	.st101{fill:#84BDFF;}
	.st102{fill:#FFD255;}
	.st103{fill:#3C5780;}
	.st104{fill:#C48A6F;}
	.st105{clip-path:url(#SVGID_6_);fill:#96CBFF;}
	.st106{clip-path:url(#SVGID_6_);fill:#95CAFF;}
	.st107{clip-path:url(#SVGID_6_);fill:#94C9FF;}
	.st108{clip-path:url(#SVGID_6_);fill:#93C9FF;}
	.st109{clip-path:url(#SVGID_6_);fill:#92C8FF;}
	.st110{clip-path:url(#SVGID_6_);fill:#91C7FF;}
	.st111{clip-path:url(#SVGID_6_);fill:#90C6FF;}
	.st112{clip-path:url(#SVGID_6_);fill:#8FC6FF;}
	.st113{clip-path:url(#SVGID_6_);fill:#8EC5FF;}
	.st114{clip-path:url(#SVGID_6_);fill:#8DC4FF;}
	.st115{clip-path:url(#SVGID_6_);fill:#8CC3FF;}
	.st116{clip-path:url(#SVGID_6_);fill:#8BC2FF;}
	.st117{clip-path:url(#SVGID_6_);fill:#8AC2FF;}
	.st118{clip-path:url(#SVGID_6_);fill:#89C1FF;}
	.st119{clip-path:url(#SVGID_6_);fill:#88C0FF;}
	.st120{clip-path:url(#SVGID_6_);fill:#87BFFF;}
	.st121{clip-path:url(#SVGID_6_);fill:#86BFFF;}
	.st122{clip-path:url(#SVGID_6_);fill:#85BEFF;}
	.st123{clip-path:url(#SVGID_6_);fill:#84BDFF;}
	.st124{clip-path:url(#SVGID_6_);fill:#83BCFF;}
	.st125{clip-path:url(#SVGID_6_);fill:#82BBFF;}
	.st126{clip-path:url(#SVGID_6_);fill:#81BBFF;}
	.st127{clip-path:url(#SVGID_6_);fill:#80BAFF;}
	.st128{clip-path:url(#SVGID_6_);fill:#7FB9FF;}
	.st129{clip-path:url(#SVGID_6_);fill:#7EB8FF;}
	.st130{clip-path:url(#SVGID_6_);fill:#7DB7FF;}
	.st131{clip-path:url(#SVGID_6_);fill:#7CB7FF;}
	.st132{clip-path:url(#SVGID_6_);fill:#7BB6FF;}
	.st133{clip-path:url(#SVGID_6_);fill:#7AB5FF;}
	.st134{clip-path:url(#SVGID_6_);fill:#79B4FF;}
	.st135{clip-path:url(#SVGID_6_);fill:#78B4FF;}
	.st136{clip-path:url(#SVGID_6_);fill:#77B3FF;}
	.st137{clip-path:url(#SVGID_6_);fill:#76B2FF;}
	.st138{clip-path:url(#SVGID_6_);fill:#74B1FF;}
	.st139{clip-path:url(#SVGID_6_);fill:#73B0FF;}
	.st140{clip-path:url(#SVGID_6_);fill:#72B0FF;}
	.st141{clip-path:url(#SVGID_6_);fill:#71AFFF;}
	.st142{clip-path:url(#SVGID_6_);fill:#70AEFF;}
	.st143{clip-path:url(#SVGID_6_);fill:#6FADFF;}
	.st144{clip-path:url(#SVGID_6_);fill:#6EADFF;}
	.st145{clip-path:url(#SVGID_6_);fill:#6DACFF;}
	.st146{clip-path:url(#SVGID_6_);fill:#6CABFF;}
	.st147{clip-path:url(#SVGID_6_);fill:#6BAAFF;}
	.st148{clip-path:url(#SVGID_6_);fill:#6AA9FF;}
	.st149{clip-path:url(#SVGID_6_);fill:#69A9FF;}
	.st150{clip-path:url(#SVGID_6_);fill:#68A8FF;}
	.st151{clip-path:url(#SVGID_6_);fill:#67A7FF;}
	.st152{clip-path:url(#SVGID_6_);fill:#66A6FF;}
	.st153{clip-path:url(#SVGID_6_);fill:#65A6FF;}
	.st154{clip-path:url(#SVGID_6_);fill:#64A5FF;}
	.st155{clip-path:url(#SVGID_6_);fill:#63A4FF;}
	.st156{clip-path:url(#SVGID_6_);fill:#62A3FF;}
	.st157{clip-path:url(#SVGID_6_);fill:#61A2FF;}
	.st158{clip-path:url(#SVGID_6_);fill:#60A2FF;}
	.st159{clip-path:url(#SVGID_6_);fill:#5FA1FF;}
	.st160{clip-path:url(#SVGID_6_);fill:#5EA0FF;}
	.st161{clip-path:url(#SVGID_6_);fill:#5D9FFF;}
	.st162{clip-path:url(#SVGID_6_);fill:#5C9EFF;}
	.st163{clip-path:url(#SVGID_6_);fill:#5B9EFF;}
	.st164{clip-path:url(#SVGID_6_);fill:#5A9DFF;}
	.st165{clip-path:url(#SVGID_6_);fill:#599CFF;}
	.st166{clip-path:url(#SVGID_6_);fill:#589BFF;}
	.st167{clip-path:url(#SVGID_6_);fill:#579BFF;}
	.st168{clip-path:url(#SVGID_6_);fill:#569AFF;}
	.st169{clip-path:url(#SVGID_6_);fill:#5599FF;}
	.st170{fill:#DB9C7C;}
	.st171{clip-path:url(#SVGID_8_);fill:#96CBFF;}
	.st172{clip-path:url(#SVGID_8_);fill:#95CAFF;}
	.st173{clip-path:url(#SVGID_8_);fill:#94C9FF;}
	.st174{clip-path:url(#SVGID_8_);fill:#93C9FF;}
	.st175{clip-path:url(#SVGID_8_);fill:#92C8FF;}
	.st176{clip-path:url(#SVGID_8_);fill:#91C7FF;}
	.st177{clip-path:url(#SVGID_8_);fill:#90C6FF;}
	.st178{clip-path:url(#SVGID_8_);fill:#8FC6FF;}
	.st179{clip-path:url(#SVGID_8_);fill:#8EC5FF;}
	.st180{clip-path:url(#SVGID_8_);fill:#8DC4FF;}
	.st181{clip-path:url(#SVGID_8_);fill:#8CC3FF;}
	.st182{clip-path:url(#SVGID_8_);fill:#8BC2FF;}
	.st183{clip-path:url(#SVGID_8_);fill:#8AC2FF;}
	.st184{clip-path:url(#SVGID_8_);fill:#89C1FF;}
	.st185{clip-path:url(#SVGID_8_);fill:#88C0FF;}
	.st186{clip-path:url(#SVGID_8_);fill:#87BFFF;}
	.st187{clip-path:url(#SVGID_8_);fill:#86BFFF;}
	.st188{clip-path:url(#SVGID_8_);fill:#85BEFF;}
	.st189{clip-path:url(#SVGID_8_);fill:#84BDFF;}
	.st190{clip-path:url(#SVGID_8_);fill:#83BCFF;}
	.st191{clip-path:url(#SVGID_8_);fill:#82BBFF;}
	.st192{clip-path:url(#SVGID_8_);fill:#81BBFF;}
	.st193{clip-path:url(#SVGID_8_);fill:#80BAFF;}
	.st194{clip-path:url(#SVGID_8_);fill:#7FB9FF;}
	.st195{clip-path:url(#SVGID_8_);fill:#7EB8FF;}
	.st196{clip-path:url(#SVGID_8_);fill:#7DB7FF;}
	.st197{clip-path:url(#SVGID_8_);fill:#7CB7FF;}
	.st198{clip-path:url(#SVGID_8_);fill:#7BB6FF;}
	.st199{clip-path:url(#SVGID_8_);fill:#7AB5FF;}
	.st200{clip-path:url(#SVGID_8_);fill:#79B4FF;}
	.st201{clip-path:url(#SVGID_8_);fill:#78B4FF;}
	.st202{clip-path:url(#SVGID_8_);fill:#77B3FF;}
	.st203{clip-path:url(#SVGID_8_);fill:#76B2FF;}
	.st204{clip-path:url(#SVGID_8_);fill:#74B1FF;}
	.st205{clip-path:url(#SVGID_8_);fill:#73B0FF;}
	.st206{clip-path:url(#SVGID_8_);fill:#72B0FF;}
	.st207{clip-path:url(#SVGID_8_);fill:#71AFFF;}
	.st208{clip-path:url(#SVGID_8_);fill:#70AEFF;}
	.st209{clip-path:url(#SVGID_8_);fill:#6FADFF;}
	.st210{clip-path:url(#SVGID_8_);fill:#6EADFF;}
	.st211{clip-path:url(#SVGID_8_);fill:#6DACFF;}
	.st212{clip-path:url(#SVGID_8_);fill:#6CABFF;}
	.st213{clip-path:url(#SVGID_8_);fill:#6BAAFF;}
	.st214{clip-path:url(#SVGID_8_);fill:#6AA9FF;}
	.st215{clip-path:url(#SVGID_8_);fill:#69A9FF;}
	.st216{clip-path:url(#SVGID_8_);fill:#68A8FF;}
	.st217{clip-path:url(#SVGID_8_);fill:#67A7FF;}
	.st218{clip-path:url(#SVGID_8_);fill:#66A6FF;}
	.st219{clip-path:url(#SVGID_8_);fill:#65A6FF;}
	.st220{clip-path:url(#SVGID_8_);fill:#64A5FF;}
	.st221{clip-path:url(#SVGID_8_);fill:#63A4FF;}
	.st222{clip-path:url(#SVGID_8_);fill:#62A3FF;}
	.st223{clip-path:url(#SVGID_8_);fill:#61A2FF;}
	.st224{clip-path:url(#SVGID_8_);fill:#60A2FF;}
	.st225{clip-path:url(#SVGID_8_);fill:#5FA1FF;}
	.st226{clip-path:url(#SVGID_8_);fill:#5EA0FF;}
	.st227{clip-path:url(#SVGID_8_);fill:#5D9FFF;}
	.st228{clip-path:url(#SVGID_8_);fill:#5C9EFF;}
	.st229{clip-path:url(#SVGID_8_);fill:#5B9EFF;}
	.st230{clip-path:url(#SVGID_8_);fill:#5A9DFF;}
	.st231{clip-path:url(#SVGID_8_);fill:#599CFF;}
	.st232{clip-path:url(#SVGID_8_);fill:#589BFF;}
	.st233{clip-path:url(#SVGID_8_);fill:#579BFF;}
	.st234{clip-path:url(#SVGID_8_);fill:#569AFF;}
	.st235{clip-path:url(#SVGID_8_);fill:#5599FF;}
	.st236{fill:#293B57;}
	.st237{fill:#E3F2FF;}
	.st238{fill:#EBEBEB;}
	.st239{fill:#162D40;}
	.st240{fill:#1D3B54;}
	.st241{fill:#D1C0BA;}
	.st242{fill:#FAE6DE;}
	.st243{fill:#54281A;}
	.st244{fill:#366E9C;}
	.st245{fill:#5C544D;}
	.st246{fill:#3C4145;}
	.st247{fill:#FCCCA2;}
	.st248{fill:#E2D2CA;}
	.st249{fill:#63A4FF;}
	.st250{fill:#F25F54;}
	.st251{fill:#C98462;}
	.st252{fill:#DE9D7D;}
	.st253{fill:#252E3B;}
	.st254{fill:#88C0FF;}
	.st255{fill:#5FA0FF;}
	.st256{fill:#5189DB;}
	.st257{fill:#C2BEBC;}
	.st258{fill:#D6D6D6;}
	.st259{fill:#E8E8E8;}
	.st260{fill:#C2C2C2;}
</style>
<g>
	<g>
		<linearGradient id="SVGID_1_" gradientUnits="userSpaceOnUse" x1="387.0131" y1="225.2512" x2="541.4057" y2="225.2512">
			<stop  offset="0" style="stop-color:#96CBFF"/>
			<stop  offset="1" style="stop-color:#5599FF"/>
		</linearGradient>
		<path class="st0" d="M521.18,259.49c3.23-5.36,5.63-11.08,7.21-16.97l12.76-2.44l0.13-14.11l0.13-14.11l-12.71-2.68
			c-1.47-5.92-3.76-11.69-6.89-17.1l7.29-10.74l-9.88-10.07l-9.88-10.07l-10.87,7.08c-5.36-3.23-11.08-5.63-16.97-7.21l-2.44-12.76
			l-14.11-0.13l-14.11-0.13l-2.68,12.71c-5.92,1.47-11.69,3.76-17.1,6.89l-10.74-7.29l-10.07,9.88l-10.07,9.88l7.08,10.87
			c-3.23,5.36-5.63,11.08-7.21,16.97l-12.76,2.44l-0.13,14.11l-0.13,14.11l12.71,2.68c1.47,5.92,3.76,11.69,6.89,17.1l-7.29,10.74
			l9.88,10.07l9.88,10.07l10.87-7.09c5.36,3.23,11.08,5.63,16.97,7.21l2.44,12.76l14.11,0.13l14.11,0.13l2.68-12.71
			c5.92-1.47,11.69-3.76,17.1-6.89l10.74,7.29l10.07-9.88l10.07-9.88L521.18,259.49z M439.52,249.49
			c-13.38-13.64-13.18-35.54,0.46-48.92c13.64-13.38,35.54-13.18,48.92,0.46c13.38,13.64,13.18,35.54-0.46,48.92
			C474.81,263.32,452.9,263.12,439.52,249.49z"/>
		
			<linearGradient id="SVGID_2_" gradientUnits="userSpaceOnUse" x1="-139.3437" y1="791.5485" x2="-24.0597" y2="791.5485" gradientTransform="matrix(0.9948 -0.1022 0.1022 0.9948 141.5578 -671.2963)">
			<stop  offset="0" style="stop-color:#96CBFF"/>
			<stop  offset="1" style="stop-color:#5599FF"/>
		</linearGradient>
		<path class="st1" d="M186.11,145.57c1.99-4.23,3.33-8.66,4.06-13.16l9.29-2.79l-0.98-10.49l-0.98-10.49l-9.64-1.02
			c-1.54-4.29-3.69-8.39-6.42-12.18l4.59-8.53l-8.11-6.73l-8.11-6.73l-7.54,6.09c-4.23-1.99-8.66-3.33-13.16-4.06l-2.79-9.29
			l-10.49,0.98l-10.49,0.98l-1.02,9.65c-4.29,1.54-8.39,3.69-12.18,6.42l-8.53-4.59l-6.73,8.11l-6.73,8.11l6.09,7.54
			c-1.99,4.23-3.33,8.66-4.06,13.16l-9.29,2.79l0.98,10.49l0.98,10.49l9.64,1.02c1.54,4.29,3.69,8.39,6.42,12.18l-4.59,8.53
			l8.11,6.73l8.11,6.73l7.54-6.09c4.23,1.99,8.66,3.33,13.16,4.06l2.79,9.29l10.49-0.98l10.49-0.98l1.02-9.65
			c4.29-1.54,8.39-3.69,12.18-6.42l8.53,4.59l6.73-8.11l6.73-8.11L186.11,145.57z M124.69,144.37c-10.98-9.11-12.5-25.39-3.39-36.38
			c9.11-10.98,25.39-12.5,36.38-3.4c10.98,9.11,12.5,25.39,3.4,36.38C151.96,151.96,135.67,153.48,124.69,144.37z"/>
		<g>
			<path class="st2" d="M497.42,357.75h-0.88v-62.87c0-13.99-11.38-25.37-25.37-25.37h-64.68c-14.48,0-26.25-11.78-26.25-26.25
				V125.76c0-13.99-11.38-25.37-25.37-25.37H189.94v-0.88h164.93c14.48,0,26.25,11.78,26.25,26.25v117.51
				c0,13.99,11.38,25.37,25.37,25.37h64.68c14.48,0,26.25,11.78,26.25,26.25V357.75z"/>
		</g>
		<g>
			<g>
				<g>
					<g>
						<g>
							<path class="st3" d="M232.21,59.69c0,0,9.98,39.75-13.98,50.61c-23.97,10.87-19.38-9.03-19.38-9.03s-9.83-2.73,16.92-17.9
								C228.39,76.23,232.21,59.69,232.21,59.69z"/>
						</g>
					</g>
				</g>
			</g>
			<g>
				<g>
					<g>
						<g>
							<path class="st4" d="M294.98,63.16c0,0,4.91,34.65-40.44,49.62c-45.36,14.98-51.82,33.97-51.82,33.97
								S201.36,69.96,294.98,63.16z"/>
						</g>
					</g>
				</g>
			</g>
			<g>
				<g>
					<g>
						<g>
							<path class="st5" d="M202.52,132.64c-13.45-5.13,18.52-32.66,43.09-31.91c24.57,0.74,41.22,9.84,57.67,5.99
								C303.28,106.72,268.74,157.92,202.52,132.64z"/>
						</g>
					</g>
				</g>
			</g>
		</g>
		<g>
			<g>
				<g>
					<path class="st6" d="M247.7,155.64c0.77-10.45,1.31-20.22,1.62-29.33c-2.52-1.34-5.55-2.9-7.98-4.05
						c-7.51-3.57-17.96-8.39-24.68-11.47c-3.93-1.81-7.78-3.12-7.78-3.12s-26.82-2.57-29-2.43c-0.69,0.04-4.04,1.21-8.44,2.88
						c-9.51,3.61-27.85,10.96-30.77,13.05c-4.28,3.07-19.6,78.17-20.01,83.27c-0.4,4.95,20.84,11.73,40.5,16.93
						c-0.01,7.61-0.17,18.28-0.34,28.02c-0.03,1.66-0.06,3.3-0.09,4.88h86.04c-0.12-1.67-0.22-3.32-0.3-4.88
						c-0.01-0.21-0.02-0.41-0.03-0.62c-0.33-6.59-1.61-18.41-1.28-29.91c0,0-0.21-12.13,1-17.35
						C246.31,178.46,247.7,155.64,247.7,155.64z M138.6,199.8c0.14-9.78,13.16-27.96,13.16-27.96s0.6-0.26,0.61-0.23
						c0.01,0.01,0.67-0.09,0.67-0.08c0.01,0,2.02-1.92,2.04-1.92c0.48,1.74,4.79,26.3,5.85,40.6
						C148.7,207.8,138.52,204.46,138.6,199.8z"/>
				</g>
			</g>
			<g>
				<g>
					<path class="st7" d="M249.29,249.38c-0.57-4.07-1.1-8.14-1.58-12.13c0-0.02-0.01-0.04-0.01-0.06
						c-0.16-1.33-0.31-2.64-0.46-3.94c-0.01-0.06-0.01-0.13-0.02-0.21c-0.63-5.49-1.15-10.75-1.53-15.58
						c-0.28-3.69-0.03-7.3,0.48-10.83c1.5-24.65,2.24-50.65,2.24-50.65c0.79-10.64,1.24-20.58,1.54-29.85
						c0,0-33.68-15.92-36.73-16.83c0,0,6.39,15,11.18,48.53c1.84,12.88,5.25,34.55,7.73,56.68v0c1.34,11.94,3.85,24.1,5.76,34.86
						c0.29,1.66,0.57,3.29,0.83,4.88h11.27C249.75,252.64,249.52,251.01,249.29,249.38z"/>
				</g>
			</g>
			<g>
				<g>
					<path class="st7" d="M193.22,209.78c1.33-12.47,2.52-24.91,1.95-31.72c-4.65-54.8-17.79-69.31-19.7-71.43
						c-1.47,0.56-7.08,2.67-8.72,3.32c-8.99,3.54-27.31,10.04-29.78,11.81c-4.28,3.07-21.16,81.8-21.67,86.89
						c-0.34,3.44,21.69,10.63,44.17,17.05c-0.21,6.16,0.38,14.85-1.67,23.93c-0.36,1.61-0.89,2.63-0.97,4.76l31.33-0.12
						c0.19-1.62,0.39-3.24,0.59-4.88c0.6-4.9,1.22-9.91,1.84-15.24c9.4,2.43,15.78,4,15.78,4s8.83-14.92,11.39-20.96
						C218.19,216.14,206.83,213.41,193.22,209.78z M152.7,190.92c-0.3-11.22-0.24-19.05-0.24-19.05c1.11,3.84,2.65,14.83,4,25.75
						C151.91,195.32,152.76,193.18,152.7,190.92z"/>
				</g>
			</g>
			<g>
				<g>
					<path class="st8" d="M178.49,106.09c0,0,3.41-6.45,2.47-24.75c-0.26-5.07,26.63,12.02,26.63,12.02s-0.09,1.75-0.15,4.11
						c-0.03,0.98-0.05,2.06-0.05,3.16c0,0.31,0,0.61,0,0.92c0,0.5,0.01,1,0.02,1.49c0.01,0.61,0.04,1.22,0.07,1.8
						c0.03,0.66,0.08,1.28,0.14,1.85c0.11,1.11,0.76,3.06,1,3.59C209.84,113.13,188.55,113.3,178.49,106.09z"/>
				</g>
			</g>
			<g>
				<path class="st9" d="M201.03,117.73l4.96,6.66c0,0-2.9,3.89-8.06,1.02L201.03,117.73z"/>
			</g>
			<g>
				<path class="st9" d="M204.66,124.66c0,0,18.16,44.35,14.28,100.68l-5.73,10.39l-6.46-8.85c0,0-1.04-74.82-6.2-102.4
					L204.66,124.66z"/>
			</g>
			<g>
				<path class="st8" d="M206.34,111.53l-5.31,6.21c0,0-8.52-1.65-11.02-6.1C187.51,107.19,206.34,111.53,206.34,111.53z"/>
			</g>
			<g>
				<path class="st10" d="M207.56,106.09c0,0-0.62,4.73-6.52,11.64l6.45,8.66l3.49-17.97L207.56,106.09z"/>
			</g>
			<g>
				<path class="st10" d="M180.11,100.4c0,0,12.31,13.93,20.93,17.33l-4,9.91l-19.65-21.68L180.11,100.4z"/>
			</g>
			<g>
				<g>
					<path class="st7" d="M306.7,226.42c0,0-16.35-15.85-27.07-18.49c-4.96-1.22-11.48-8.06-17.69-16.1
						c-2.04-2.65-4.05-5.43-5.96-8.18c0-0.01,0-0.01,0-0.01c-7.61-10.99-13.57-21.52-13.57-21.52s-22.5-26.36-4.44-38.11
						c0,0,7.74-0.17,11.98,2.14c4.36,2.37,13.67,21.79,15.25,25.23c1.58,3.43,18.67,35.38,19.82,36.1c1.15,0.72,3.05,3.34,9.89,7.03
						c8.37,4.51,21.53,17.71,21.53,17.71L306.7,226.42z"/>
				</g>
			</g>
			<g>
				<path class="st11" d="M228.24,244.76c0,0-2.28-0.09-3.26-0.62c0,0-1.71-1.1-2.97-1.8c-0.4-0.22-0.76-0.41-1-0.5
					c-1.01-0.4-3.34-0.98-5.49-2.62c-2.15-1.64-9.16-8.19-9.16-8.19l4.53-6.96l2.09-6.89c0,0,16.34,1.62,18.52,2.92
					c0.21,0.13,0.42,0.26,0.6,0.4c1.74,1.28,2.5,2.96,3.33,3.73c0.3,0.29,3.15,3.33,2.99,4.57c-0.22,1.71-1.07,2.82-2.13,3.34
					c0,0-0.58,3.34-2.3,4.83c0,0-0.43,3.1-3.11,4.34C230.89,241.3,230.1,244.39,228.24,244.76z"/>
			</g>
			<g>
				<path class="st12" d="M202.23,34.13c0,0,29.53-7.12,23.31,30.27c-6.22,37.39-13.3,40.42-31.29,32.97
					C176.26,89.91,177.51,66,176.44,54.3C175.36,42.6,192.78,34.68,202.23,34.13z"/>
			</g>
			<g>
				<path class="st12" d="M186.71,60.02c-0.44-3.28-6.96-4.39-7.41,0.55c-0.45,4.94,3.15,13.54,5.61,12.66
					C187.37,72.34,187.32,64.55,186.71,60.02z"/>
			</g>
			<g>
				<path class="st13" d="M178.16,73.41c0,0,0.59-11.76,4.88-12.19c4.29-0.43,5.02,4.29,5.02,4.29l4.34,0.75
					c0,0-1.52-10.28,2.74-12.14c4.26-1.86,27.84,5.26,31.24,2.19c3.39-3.07,1.47-23.94-4.79-26.7c-6.26-2.77-23.53-8.92-35.99-0.22
					c0,0-9.83-0.97-11.17,6.96C173.08,44.3,175.41,67.56,178.16,73.41z"/>
			</g>
			<g>
				<path class="st7" d="M218.56,217.17l-12.19,20.96c0,0-32.3-8.32-39.84-10.45l17.23-20.5
					C183.76,207.18,209.16,212.99,218.56,217.17z"/>
			</g>
			<g>
				<path class="st14" d="M207.48,104.84L207.48,104.84c-15.84-1.61-21.98-13.81-21.98-13.81c9.96,9.87,21.89,9.6,21.89,9.6
					c0,0.31,0,0.61,0,0.92c0,0.5,0.01,1,0.02,1.49C207.42,103.66,207.44,104.26,207.48,104.84z"/>
			</g>
		</g>
		<g>
			<path class="st15" d="M426.19,290.65c-0.87-1.15-2.24-1.9-3.79-1.92c-2.14-0.03-3.98,1.35-4.63,3.27l0,0l0,0
				c-0.16,0.47-0.25,0.96-0.25,1.48c-0.01,0.6,0.1,1.18,0.29,1.72c0.31,0.86,0.86,1.6,1.57,2.15c0.71,0.55,1.57,0.9,2.51,0.99
				c0.12,0.01,0.25,0.02,0.38,0.02c0.08,0,0.16,0,0.24,0c0.03,0,0.06,0,0.08,0c0.48-0.03,0.95-0.12,1.38-0.28
				c1.83-0.66,3.15-2.41,3.17-4.47C427.17,292.5,426.81,291.47,426.19,290.65z M423.57,296.94L423.57,296.94
				c-0.33,0.12-0.68,0.19-1.04,0.21l0,0c-0.08,0-0.16,0-0.24,0c-0.34,0-0.67-0.06-0.99-0.15c-0.43-0.13-0.83-0.33-1.18-0.6
				c-0.13-0.1-0.25-0.21-0.36-0.32c-0.65-0.66-1.05-1.58-1.04-2.58c0-0.26,0.04-0.52,0.09-0.76c0.03-0.12,0.06-0.24,0.1-0.35
				c0.49-1.44,1.86-2.47,3.47-2.45c1.15,0.01,2.18,0.57,2.83,1.42c0.47,0.62,0.75,1.4,0.74,2.24
				C425.93,295.14,424.94,296.44,423.57,296.94z"/>
		</g>
		<g>
			<path class="st12" d="M241.48,199.96c18.36,18.9,42.61,42.69,42.61,42.69l9.48-18c0,0-21.54-25.25-36.15-42.11
				C252.94,184.74,244.73,189.98,241.48,199.96z"/>
		</g>
		<g>
			<g>
				<path class="st12" d="M230.14,225.37c0,0,4.94,2.39,6.23,3.45c1.29,1.06,6.52,4.98,7.79,5.9c1.27,0.92-1.91,3.54-11.26-0.51
					C223.55,230.16,230.14,225.37,230.14,225.37z"/>
			</g>
		</g>
		<g>
			<polygon class="st16" points="230.57,171.28 221.96,251.36 335.33,251.36 343.94,171.28 			"/>
		</g>
		<g>
			<path class="st16" d="M341.8,247.67H227.54l8.71-80.97h114.26L341.8,247.67z M228.52,246.78h112.49l8.52-79.2H237.04
				L228.52,246.78z"/>
		</g>
		<g>
			
				<rect x="212.93" y="244.16" transform="matrix(-1 -1.224647e-16 1.224647e-16 -1 444.8036 495.5248)" class="st16" width="18.94" height="7.21"/>
		</g>
		<g>
			<g>
				<defs>
					<rect id="SVGID_3_" x="30.77" y="251.2" width="308.12" height="4.88"/>
				</defs>
				<clipPath id="SVGID_4_">
					<use xlink:href="#SVGID_3_"  style="overflow:visible;"/>
				</clipPath>
				<path class="st17" d="M30.77,251.2v4.88V251.2z"/>
				<rect x="30.77" y="251.2" class="st17" width="4.74" height="4.88"/>
				<rect x="35.51" y="251.2" class="st18" width="4.74" height="4.88"/>
				<rect x="40.25" y="251.2" class="st19" width="4.74" height="4.88"/>
				<rect x="44.99" y="251.2" class="st20" width="4.74" height="4.88"/>
				<rect x="49.73" y="251.2" class="st21" width="4.74" height="4.88"/>
				<rect x="54.47" y="251.2" class="st22" width="4.74" height="4.88"/>
				<rect x="59.21" y="251.2" class="st23" width="4.74" height="4.88"/>
				<rect x="63.95" y="251.2" class="st24" width="4.74" height="4.88"/>
				<rect x="68.69" y="251.2" class="st25" width="4.74" height="4.88"/>
				<rect x="73.43" y="251.2" class="st26" width="4.74" height="4.88"/>
				<rect x="78.17" y="251.2" class="st27" width="4.74" height="4.88"/>
				<rect x="82.91" y="251.2" class="st28" width="4.74" height="4.88"/>
				<rect x="87.65" y="251.2" class="st29" width="4.74" height="4.88"/>
				<rect x="92.39" y="251.2" class="st30" width="4.74" height="4.88"/>
				<rect x="97.13" y="251.2" class="st31" width="4.74" height="4.88"/>
				<rect x="101.87" y="251.2" class="st32" width="4.74" height="4.88"/>
				<rect x="106.61" y="251.2" class="st33" width="4.74" height="4.88"/>
				<rect x="111.35" y="251.2" class="st34" width="4.74" height="4.88"/>
				<rect x="116.09" y="251.2" class="st35" width="4.74" height="4.88"/>
				<rect x="120.83" y="251.2" class="st36" width="4.74" height="4.88"/>
				<rect x="125.57" y="251.2" class="st37" width="4.74" height="4.88"/>
				<rect x="130.31" y="251.2" class="st38" width="4.74" height="4.88"/>
				<rect x="135.05" y="251.2" class="st39" width="4.74" height="4.88"/>
				<rect x="139.79" y="251.2" class="st40" width="4.74" height="4.88"/>
				<rect x="144.53" y="251.2" class="st41" width="4.74" height="4.88"/>
				<rect x="149.27" y="251.2" class="st42" width="4.74" height="4.88"/>
				<rect x="154.02" y="251.2" class="st43" width="4.74" height="4.88"/>
				<rect x="158.76" y="251.2" class="st44" width="4.74" height="4.88"/>
				<rect x="163.5" y="251.2" class="st45" width="4.74" height="4.88"/>
				<rect x="168.24" y="251.2" class="st46" width="4.74" height="4.88"/>
				<rect x="172.98" y="251.2" class="st47" width="4.74" height="4.88"/>
				<rect x="177.72" y="251.2" class="st48" width="4.74" height="4.88"/>
				<rect x="182.46" y="251.2" class="st49" width="4.74" height="4.88"/>
				<rect x="187.2" y="251.2" class="st50" width="4.74" height="4.88"/>
				<rect x="191.94" y="251.2" class="st51" width="4.74" height="4.88"/>
				<rect x="196.68" y="251.2" class="st52" width="4.74" height="4.88"/>
				<rect x="201.42" y="251.2" class="st53" width="4.74" height="4.88"/>
				<rect x="206.16" y="251.2" class="st54" width="4.74" height="4.88"/>
				<rect x="210.9" y="251.2" class="st55" width="4.74" height="4.88"/>
				<rect x="215.64" y="251.2" class="st56" width="4.74" height="4.88"/>
				<rect x="220.38" y="251.2" class="st57" width="4.74" height="4.88"/>
				<rect x="225.12" y="251.2" class="st58" width="4.74" height="4.88"/>
				<rect x="229.86" y="251.2" class="st59" width="4.74" height="4.88"/>
				<rect x="234.6" y="251.2" class="st60" width="4.74" height="4.88"/>
				<rect x="239.34" y="251.2" class="st61" width="4.74" height="4.88"/>
				<rect x="244.08" y="251.2" class="st62" width="4.74" height="4.88"/>
				<rect x="248.82" y="251.2" class="st63" width="4.74" height="4.88"/>
				<rect x="253.56" y="251.2" class="st64" width="4.74" height="4.88"/>
				<rect x="258.3" y="251.2" class="st65" width="4.74" height="4.88"/>
				<rect x="263.04" y="251.2" class="st66" width="4.74" height="4.88"/>
				<rect x="267.78" y="251.2" class="st67" width="4.74" height="4.88"/>
				<rect x="272.52" y="251.2" class="st68" width="4.74" height="4.88"/>
				<rect x="277.26" y="251.2" class="st69" width="4.74" height="4.88"/>
				<rect x="282" y="251.2" class="st70" width="4.74" height="4.88"/>
				<rect x="286.74" y="251.2" class="st71" width="4.74" height="4.88"/>
				<rect x="291.48" y="251.2" class="st72" width="4.74" height="4.88"/>
				<rect x="296.23" y="251.2" class="st73" width="4.74" height="4.88"/>
				<rect x="300.97" y="251.2" class="st74" width="4.74" height="4.88"/>
				<rect x="305.71" y="251.2" class="st75" width="4.74" height="4.88"/>
				<rect x="310.45" y="251.2" class="st76" width="4.74" height="4.88"/>
				<rect x="315.19" y="251.2" class="st77" width="4.74" height="4.88"/>
				<rect x="319.93" y="251.2" class="st78" width="4.74" height="4.88"/>
				<rect x="324.67" y="251.2" class="st79" width="4.74" height="4.88"/>
				<rect x="329.41" y="251.2" class="st80" width="4.74" height="4.88"/>
				<rect x="334.15" y="251.2" class="st81" width="4.74" height="4.88"/>
				<path class="st81" d="M338.89,256.08v-4.88V256.08z"/>
			</g>
		</g>
		<g>
			<rect x="260.22" y="355.31" class="st16" width="266.96" height="4.88"/>
		</g>
		<g>
			<path class="st82" d="M276.65,210.04c-0.91,4.46,1.17,8.65,4.65,9.36c3.48,0.71,7.03-2.33,7.95-6.79
				c0.91-4.46-1.17-8.65-4.65-9.36C281.12,202.54,277.57,205.58,276.65,210.04z"/>
		</g>
		<g>
			<g>
				<g>
					<path class="st83" d="M492.88,178.29c0,0,2.62,4.43,3.72,5.16c1.5,0.98,0.56,1.98-0.15,1.98c-0.71,0-4.35,0.26-5.15-0.65
						c-0.8-0.91-1.2-3.63-1.94-4.35c-0.75-0.71-1.51-3.54,0.36-4.23C491.38,175.59,492.88,178.29,492.88,178.29z"/>
				</g>
			</g>
		</g>
		<g>
			<g>
				<g>
					<path class="st84" d="M491.75,176.34c0,0,3,5.19,3.51,5.96c0.52,0.77-0.97,0.77-1.89,0.4c-0.92-0.36-3.24-4.09-3.58-4.77
						c-0.4-0.81-0.07-1.74-0.07-1.74L491.75,176.34z"/>
				</g>
			</g>
		</g>
		<g>
			<g>
				<g>
					<polygon class="st83" points="488.72,179.14 489.41,184.46 489.77,184.48 489.66,180.65 					"/>
				</g>
			</g>
		</g>
		<g>
			<g>
				<g>
					<path class="st83" d="M466.95,178.29c0,0,2.62,4.43,3.72,5.16c1.5,0.98,0.56,1.98-0.15,1.98c-0.71,0-4.35,0.26-5.15-0.65
						c-0.8-0.91-1.2-3.63-1.94-4.35c-0.75-0.71-1.54-3.62,0.36-4.23C465.46,175.66,466.95,178.29,466.95,178.29z"/>
				</g>
			</g>
		</g>
		<g>
			<g>
				<g>
					<path class="st84" d="M465.97,176.35c0,0,2.84,5.18,3.35,5.95c0.52,0.77-0.97,0.77-1.89,0.4c-0.92-0.36-3.24-4.09-3.58-4.77
						c-0.4-0.81-0.07-1.74-0.07-1.74L465.97,176.35z"/>
				</g>
			</g>
		</g>
		<g>
			<g>
				<g>
					<polygon class="st83" points="462.78,179.14 463.47,184.46 463.84,184.48 463.73,180.65 					"/>
				</g>
			</g>
		</g>
		<g>
			<g>
				<g>
					<path class="st84" d="M455.35,137.95l23.67,10.78c0,0,2.64,0.86,2.94,3.79c0.92,9.16,7.77,23.68,7.77,23.68
						c2.2,1.07,2.03,0.14,2.03,0.14c-1.38-4.44-3.07-22.76-3.67-30.13c-0.13-1.56-0.21-2.63-0.22-2.97
						c-0.01-0.23-0.27-0.54-0.71-0.89c-3.25-2.63-16.61-8.09-16.61-8.09C460.51,134.01,455.35,137.95,455.35,137.95z"/>
				</g>
			</g>
		</g>
		<g>
			<g>
				<g>
					<path class="st84" d="M450.89,142.58c0.73,6.4,9.86,5.66,9.86,5.66h11.07c0,0-2.91,6.47-4.03,11.92c-1.19,5.79-4,16.04-4,16.04
						s0.18,0.35,2.19,0.15c0,0,8.69-17.31,12.01-21.67c0.71-0.94,2.77-6.02,3.12-9.05c0.12-1.02,0.05-1.81-0.33-2.13
						c-0.38-0.32-1.27-0.93-2.44-1.67c-3.47-2.19-9.49-5.55-12.84-6.31c-4.49-1.01-11.6-2.9-11.6-2.9S450.15,136.18,450.89,142.58z"
						/>
				</g>
			</g>
		</g>
		<g>
			<path class="st85" d="M458.42,93.31c0,0-1.66-3.14-0.85-6.49c0.81-3.35,3.92-6.69,8.46-5.15c4.55,1.53,8.23,5.07,5.5,9.15
				c-2.73,4.09,2.47,5.93,1.14,7.88c-1.33,1.94-0.82,3.98-0.26,4.43c0.56,0.45,2.37,2.07,2.17,3.97c-0.2,1.91-8.83-5.56-8.83-5.56
				S461.06,92.08,458.42,93.31z"/>
		</g>
		<g>
			<path class="st86" d="M472.29,133.5c0,0-0.69,3.33-18.36-0.87C453.92,132.63,459.85,130.66,472.29,133.5z"/>
		</g>
		<g>
			<g>
				<path class="st87" d="M453.72,133.56c-0.27,0.52-0.55,1.05-0.82,1.57c6.46,0.19,12.92,0.38,19.38,0.56
					c-1.02-3.42-0.69-8.06-0.51-11.57c0.22-4.3,2.59-7.28,2.34-11.63c1.28,0.21,1.5,0.25,2.78,0.44c-1.96-5.58-2.63-8.34-8.71-10.49
					c-1.98-0.7-3.28-0.84-5.42-0.66c-7.04,0.58-9.17,0.66-12.63,7.05c5.42,0.86,4.52,2.81,6.17,8.19c0.8,2.63,1.64,5.56,1.21,8.33
					C457.08,128.08,453.72,131.07,453.72,133.56z"/>
			</g>
		</g>
		<g>
			<g>
				<path class="st12" d="M464.96,103.79c-2.88-0.54-2.27-2.15-2.27-2.15s0.13-0.91,0.19-2.05c0.01-0.29,0.02-0.6,0.02-0.91
					c0-0.48-0.02-0.96-0.08-1.42c-0.24-1.93,5.23-0.78,5.23-0.78s-0.32,3.92,0.44,5.09C469.25,102.75,467.85,104.34,464.96,103.79z"
					/>
			</g>
		</g>
		<g>
			<g>
				<path class="st12" d="M459.47,101.64c0,0,5.81,6.71,7.96,8.27c0,0,2.47-2.23,0.95-8.12
					C468.38,101.78,465.57,100.38,459.47,101.64z"/>
			</g>
		</g>
		<g>
			<path class="st12" d="M459.62,85.48c0,0-3.02,5.82-0.02,11.33c3,5.51,8.88-2.4,9.26-3.33c0.38-0.93,2.4-6.18-1.62-7.77
				C463.23,84.11,460.48,83.9,459.62,85.48z"/>
		</g>
		<g>
			<path class="st85" d="M460.63,87.54c0,0-2.08,2.73-2.32,4.75c0,0-0.83-3.81,1.51-7.48c2.34-3.66,8.29-0.17,9.09,1.29
				c0.8,1.46,3.13,2.75-0.79,9.05C468.11,95.15,461.05,90.24,460.63,87.54z"/>
		</g>
		<g>
			<path class="st14" d="M465.45,97.39c0,0-0.52,1.15-2.57,2.21c0.01-0.29,0.02-0.6,0.02-0.91
				C462.9,98.68,464.29,98.52,465.45,97.39z"/>
		</g>
		<g>
			<path class="st12" d="M434.93,128.32c0,0-1.44,0.64-2.12,0.35s-1.73-0.35-2.07-0.35c-0.44,0-1.83-0.5-1.81,0.05
				c0.02,0.54,2.26,0.92,2.71,1.09c0.46,0.17-1.37,1.17-1.54,1.62c-0.17,0.45,1.89,3.37,3.05,2.54c1.16-0.83,1.79-2.5,2.03-2.6
				c0.24-0.11,0.87-0.57,0.87-0.57L434.93,128.32z"/>
		</g>
		<g>
			<path class="st12" d="M430.34,130.82c0,0-3.37,2.79-3.42,3.17c-0.05,0.38,0.12,0.55,0.45,0.31c0.33-0.25,3.34-2.6,3.34-2.6
				s-3.37,3.98-3.49,4.28c-0.07,0.17,0.26,0.53,0.45,0.42s3.78-3.87,3.78-3.87s-3.14,3.73-3.16,4c-0.01,0.24,0.36,0.51,0.62,0.25
				c0.25-0.26,3.38-3.55,3.38-3.55s-2.1,2.86-1.97,3.11c0.08,0.15,0.34,0.48,0.86-0.28c0.52-0.76,1.94-2.4,1.94-2.4L430.34,130.82z"
				/>
		</g>
		<g>
			<g>
				<path class="st16" d="M470.66,148.24h-9.91c0,0-9.13,0.73-9.86-5.66c-0.73-6.4,3-9.95,3-9.95s4.82,1.28,9.04,2.3
					c2.11-0.45,4.65-0.74,7.62-0.66c0,0,17.85,5.9,17.32,9.01C487.86,143.27,480.39,139.28,470.66,148.24z"/>
			</g>
		</g>
		<g>
			<polygon class="st88" points="464.21,137.17 483.11,136.89 473.57,141.73 			"/>
		</g>
		<g>
			<path class="st87" d="M470.08,134.75c0,0-4.25,1.65-9.46,0.16l-0.24-1.95l10.73,0.6L470.08,134.75z"/>
		</g>
		<g>
			<polygon class="st89" points="473.57,141.73 464.21,138.11 464.21,137.17 474.31,140.81 			"/>
		</g>
		<g>
			<g>
				<path class="st90" d="M470.02,135.65c-0.05,0.7,0.66,1.2,1.3,0.93l1.1-0.47c0.33-0.14,0.52-0.49,0.46-0.84
					c-0.46-2.86-1.44-13.99,0-15.89c0.53-0.71,0.86-1.32,1.05-1.86c0.95,2.44,2.12,5.58,2.59,7.27l8.93,11.88l2.99,0.76
					c-3.74-9-6.74-13.77-6.74-13.77c-0.58-1.57-2.26-6.32-3.74-10.55c-0.94-2.67-1.8-5.13-2.26-6.46c-0.23-0.67-0.7-1.24-1.31-1.6
					c-1.38-0.83-3.69-2.13-5.78-3.14c-0.01,0-0.02-0.01-0.03-0.01c-0.07-0.03-0.13-0.06-0.2-0.1c0,0,0,0,0,0c0,0,0,0,0,0
					c3.97,6.01,2.42,22.99,1.64,33.85C470.02,135.63,470.02,135.64,470.02,135.65z"/>
			</g>
			<g>
				<path class="st90" d="M455.27,102.29c-1.27,0.2-4.43,3.26-6.1,6.35c-1.91,3.53-3.86,7.55-5.32,8.87
					c-2.68,2.43-10.19,11.02-10.55,10.82c-0.14-0.08,2.06,2.57,2.34,2.69c0.14,0.06,12.34-10.52,13.52-12.13
					c1.11-1.53,4.08-7.94,4.97-7.8c0,0,0,0,0,0c0,0,0,0,0,0c0.07,0.15,1.15,2.49,2.17,5.92c0.02,0.06,0.03,0.11,0.05,0.17
					c0.71,2.39,0.64,4.98,0.26,7.9c-0.29,2.2-1.93,5.8-2.92,7.55c-0.12,0.21-0.09,0.61,0.04,0.92c0,0,0,0,0,0
					c0.08,0.18,0.19,0.33,0.33,0.38l3.58,1.33l0.84,0.31c0.61,0.23,1.24,0.11,1.72-0.24c0.39-0.28,0.67-0.72,0.74-1.25
					c0.8-6.13,1.8-12.39,2.61-14.75c3.53-10.35-1.38-18.13-1.38-18.13S456.38,101.88,455.27,102.29z"/>
			</g>
		</g>
		<g>
			<polygon class="st91" points="473.57,141.73 479.19,126.38 497.31,126.68 491.95,140.82 			"/>
		</g>
		<g>
			<path class="st92" d="M484.99,133.17c-0.55,1.11-0.39,2.31,0.37,2.69c0.76,0.38,1.82-0.21,2.38-1.31
				c0.55-1.11,0.39-2.31-0.37-2.69C486.6,131.48,485.54,132.07,484.99,133.17z"/>
		</g>
		<g>
			<path class="st85" d="M465.88,91.27c0,0,1.16,1.81,0.09,3.36c-1.07,1.56,0.27,3.09,0.5,4.74c0.23,1.65-4.48,6.03,0.76,8.24
				c5.24,2.21,6.9-1.44,5.57-3.45c-1.34-2.01-2.28-3.63-2.4-6.5C470.29,94.81,469.35,90.35,465.88,91.27z"/>
		</g>
		<g>
			<polygon class="st93" points="440.29,83.77 451.21,83.77 451.21,91.69 451.21,93.36 449.54,91.69 440.29,91.69 			"/>
		</g>
		<g>
			<g>
				<g>
					<g>
						<g>
							<path class="st3" d="M378.95,205.3c0,0-23.81,22.66-12.23,40.31c11.59,17.64,17.01,2.19,17.01,2.19s7.83,2.37-3.79-19.39
								C374.45,218.15,378.95,205.3,378.95,205.3z"/>
						</g>
					</g>
				</g>
			</g>
			<g>
				<g>
					<g>
						<g>
							<path class="st4" d="M334.92,180.73c0,0-18.19,21.38,6.13,50.98c24.32,29.61,20.55,45.25,20.55,45.25
								S395.46,225.5,334.92,180.73z"/>
						</g>
					</g>
				</g>
			</g>
			<g>
				<g>
					<g>
						<g>
							<path class="st5" d="M367.09,268.03c11.32,2.29,2.16-30.62-14.81-40.65c-16.97-10.03-32.16-11.01-41.66-20.67
								C310.61,206.7,311.35,256.76,367.09,268.03z"/>
						</g>
					</g>
				</g>
			</g>
		</g>
		<g>
			<g>
				<g>
					<g>
						<path class="st12" d="M293.12,282.47c0,0,0.52-1.29,0.6-1.48c0.08-0.19,0.58-0.51,1.19-0.82c0.61-0.31,1.56-0.46,1.67-0.41
							c0.1,0.06,0.23,0.07,0.37,0.34c0.13,0.27,0.09,0.57,0.09,0.57s0.32,0.26,0.25,0.63c0,0,0.29,0.26,0.14,0.66
							c0,0,0.28,0.26,0.14,0.54c0,0-0.5,0.32-0.65,0.49c-0.15,0.17-1.24,0.76-2.36,1.17C294.55,284.15,293.35,284.17,293.12,282.47z
							"/>
					</g>
				</g>
			</g>
			<g>
				<g>
					<g>
						<path class="st94" d="M294.96,281.77c0,0,0.01,0.7-0.08,0.89c-0.09,0.2,1.41,0.64,1.41,0.64S295.81,281.77,294.96,281.77z"/>
					</g>
				</g>
			</g>
			<g>
				<g>
					<g>
						<polygon class="st95" points="266.84,349.81 267.5,347.76 270.28,348.21 269.87,350.06 						"/>
					</g>
				</g>
			</g>
			<g>
				<g>
					<g>
						<polygon class="st96" points="289.66,349.57 289.82,350.69 292.86,350.19 292.7,348.5 						"/>
					</g>
				</g>
			</g>
			<g>
				<g>
					<g>
						<g>
							<path class="st97" d="M283.06,318c0,0-0.45,2.45-0.97,5.16c-0.09,0.47-0.18,0.95-0.28,1.43c-0.51,2.62-1.02,5.13-1.21,5.65
								c-0.43,1.18-9.76,18.28-9.76,18.28s-3.82-0.29-3.96-0.78c0,0,7.82-18.57,7.78-19.24c-0.04-0.68,0.96-19.71,0.96-19.71
								S282.85,316.9,283.06,318z"/>
						</g>
					</g>
				</g>
			</g>
			<g>
				<g>
					<g>
						<g>
							<path class="st97" d="M287.32,307.71c0,0,3.65,18.7,3.96,20.13c0.31,1.43,1.7,20.58,1.7,20.58s-0.82,1.69-3.85,1.06
								c0,0-4.13-20.58-4.48-21.27c-1.35-2.68-7.99-15.64-8.63-17.49c-0.64-1.85-0.45-4.01-0.45-4.01S280.5,303.94,287.32,307.71z"
								/>
						</g>
					</g>
				</g>
			</g>
			<g>
				<g>
					<g>
						<g>
							<path class="st98" d="M285.79,283.49c0,0,1.6,3.99,2,3.88c0.4-0.12,5-5.52,5-5.52s2.11,2.63,1.82,2.93
								c-0.39,0.42-5.83,9.46-6.58,9.29c-0.75-0.16-4.09-5.69-4.09-5.69S283.77,284.21,285.79,283.49z"/>
						</g>
					</g>
				</g>
			</g>
			<g>
				<g>
					<g>
						<g>
							<path class="st99" d="M278.94,275.87c0,0,4.15,3.17,5.3,4.43c1.15,1.26,4.31,6.48,4.08,8.05
								c-0.87,6.02-1.29,11.15-1.32,15.26c-0.02,3.58,1.12,4.49,0.41,4.54c-0.82,0.06-11.27,3.85-12.81,4.31
								c0,0,1.01-12.6,1.53-14.06S274.48,281.72,278.94,275.87z"/>
						</g>
					</g>
				</g>
			</g>
			<g>
				<g>
					<g>
						<path class="st100" d="M305.69,269.85l0.93,4.69l0.93,4.7c0,0-5.33-1.67-11.38-0.47l-0.41-2.07l-0.41-2.08
							C301.4,273.41,305.69,269.85,305.69,269.85z"/>
					</g>
				</g>
			</g>
			<g>
				<g>
					<g>
						<path class="st101" d="M289.82,350.69c0,0,2.3-0.45,2.38-0.51c0.08-0.07,0.57-0.98,0.93-0.82c0.36,0.16,0.36,1.26,0.71,1.45
							c0.35,0.19,3.09,2.04,3.43,2.38c0.34,0.34,2.42,0.14,2.66,0.73c0.24,0.59,0.26,1.97-2.84,1.65c-3.1-0.33-6.64,0.18-7.31-0.19
							C289.1,355.01,289.6,351.59,289.82,350.69z"/>
					</g>
				</g>
			</g>
			<g>
				<g>
					<g>
						<path class="st101" d="M266.81,349.76c0,0,2.34-0.07,2.43-0.13c0.09-0.06,0.72-0.87,1.05-0.66c0.33,0.21,0.15,1.31,0.47,1.55
							c0.31,0.24,2.73,2.51,3.01,2.9c0.28,0.39,2.36,0.52,2.5,1.14s-0.06,1.99-3.07,1.17c-3.01-0.82-6.59-0.89-7.19-1.36
							C265.41,353.9,266.45,350.61,266.81,349.76z"/>
					</g>
				</g>
			</g>
			<g>
				<g>
					<g>
						<g>
							<path class="st8" d="M284.99,308.57c0,0,0.28,1.14,0.73,1.39c0.45,0.25-2.1,2.68-2.1,2.68s-1.03-2.26-1-2.48
								C282.65,309.93,284.99,308.57,284.99,308.57z"/>
						</g>
					</g>
				</g>
			</g>
			<g>
				<g>
					<g>
						<g>
							<path class="st102" d="M277.1,280.79c0,0-2.98,14.18-3.22,15.63c-0.23,1.37,8.74,14.49,8.74,14.49l2.98-1.77
								c0,0-7.24-13.16-7.23-13.76c0.01-0.6,3.47-12.03,3.47-12.03s1.45-2.49-1.12-3.7C278.15,278.44,277.1,280.79,277.1,280.79z"/>
						</g>
					</g>
				</g>
			</g>
			<g>
				<g>
					<g>
						<path class="st103" d="M286.74,309.55c0,0,0.97,4.82,0.91,6.3s-5.56-2.32-5.29-3.79L286.74,309.55z"/>
					</g>
				</g>
			</g>
			<g>
				<g>
					<g>
						<g>
							<g>
								<path class="st12" d="M278.94,275.87c0,0,7.56,8.26,7.1,7.35c-1.66-3.27-2.82-3.82-2.8-4.43c0.02-0.47,0.2-1.83,0.23-2.28
									c0.06-0.87,0.12-1.57,0.12-1.57s-3.76-5.28-3.59-3.48C280.17,273.26,278.94,275.87,278.94,275.87z"/>
							</g>
						</g>
					</g>
				</g>
			</g>
			<g>
				<g>
					<g>
						<g>
							<g>
								<path class="st12" d="M286.14,266.14c0,0,1.04,2.44,1.05,3.01c0.01,0.57-0.13,1.01-0.04,1.67c0.09,0.68,0.66,2.11,0.59,2.51
									c-0.08,0.48-1.09,0.23-1.23,1.02c-0.14,0.79-0.87,2.27-1.24,2.3c-0.94,0.08-4.52-1.39-4.75-2.14
									c-0.23-0.75-1.53-4.93-1.93-5.73s6.32-5.16,6.93-3.9C286.14,266.14,286.14,266.14,286.14,266.14z"/>
							</g>
						</g>
					</g>
				</g>
			</g>
			<g>
				<g>
					<g>
						<path class="st13" d="M277,267.95c-0.47-2.07,1.91-2.33,1.91-2.33s1.55-1.81,5.26-1.59c3.71,0.21,3.14,5.06,3.14,5.06
							s-2.57-0.38-3.68-0.1c0,0-0.14,2.07-0.02,2.58l-1.4-0.12c0,0,0.16-1.83-0.52-1.92c-0.67-0.09-0.9,3.88-2.15,4.76
							c0,0-0.01-0.28-0.17-0.55l0,0l0,0c-0.25-0.44-0.64-1.17-0.97-2.03C277.87,270.5,277.25,269.01,277,267.95z"/>
					</g>
				</g>
			</g>
			<g>
				<g>
					<g>
						<g>
							<g>
								<path class="st12" d="M282.63,269.97c0,0-0.52-1.4-1.75-0.49c-0.9,0.66,0.03,3.03,0.9,3.01
									C282.65,272.48,283,271.19,282.63,269.97z"/>
							</g>
						</g>
					</g>
				</g>
			</g>
			<g>
				<g>
					<g>
						<path class="st104" d="M280.33,273.85c0,0,0.18,0.74,0.38,0.92c0.2,0.17,1.14,0.94,2.78,1.45l-0.15,1.47
							C283.35,277.69,280.17,276.46,280.33,273.85z"/>
					</g>
				</g>
			</g>
			<g>
				<g>
					<g>
						<g>
							<defs>
								<path id="SVGID_5_" d="M297.01,283.9l0.53-0.25l-2.42-5.13l-1.36,0.64l2.05,4.35C296.05,283.99,296.53,284.13,297.01,283.9z
									"/>
							</defs>
							<clipPath id="SVGID_6_">
								<use xlink:href="#SVGID_5_"  style="overflow:visible;"/>
							</clipPath>
							<path class="st105" d="M293.77,278.52v5.62V278.52z"/>
							<rect x="293.77" y="278.52" class="st105" width="0.06" height="5.62"/>
							<rect x="293.83" y="278.52" class="st106" width="0.06" height="5.62"/>
							<rect x="293.89" y="278.52" class="st107" width="0.06" height="5.62"/>
							<rect x="293.94" y="278.52" class="st108" width="0.06" height="5.62"/>
							<rect x="294" y="278.52" class="st109" width="0.06" height="5.62"/>
							<rect x="294.06" y="278.52" class="st110" width="0.06" height="5.62"/>
							<rect x="294.12" y="278.52" class="st111" width="0.06" height="5.62"/>
							<rect x="294.18" y="278.52" class="st112" width="0.06" height="5.62"/>
							<rect x="294.24" y="278.52" class="st113" width="0.06" height="5.62"/>
							<rect x="294.29" y="278.52" class="st114" width="0.06" height="5.62"/>
							<rect x="294.35" y="278.52" class="st115" width="0.06" height="5.62"/>
							<rect x="294.41" y="278.52" class="st116" width="0.06" height="5.62"/>
							<rect x="294.47" y="278.52" class="st117" width="0.06" height="5.62"/>
							<rect x="294.53" y="278.52" class="st118" width="0.06" height="5.62"/>
							<rect x="294.58" y="278.52" class="st119" width="0.06" height="5.62"/>
							<rect x="294.64" y="278.52" class="st120" width="0.06" height="5.62"/>
							<rect x="294.7" y="278.52" class="st121" width="0.06" height="5.62"/>
							<rect x="294.76" y="278.52" class="st122" width="0.06" height="5.62"/>
							<rect x="294.82" y="278.52" class="st123" width="0.06" height="5.62"/>
							<rect x="294.87" y="278.52" class="st124" width="0.06" height="5.62"/>
							<rect x="294.93" y="278.52" class="st125" width="0.06" height="5.62"/>
							<rect x="294.99" y="278.52" class="st126" width="0.06" height="5.62"/>
							<rect x="295.05" y="278.52" class="st127" width="0.06" height="5.62"/>
							<rect x="295.11" y="278.52" class="st128" width="0.06" height="5.62"/>
							<rect x="295.17" y="278.52" class="st129" width="0.06" height="5.62"/>
							<rect x="295.22" y="278.52" class="st130" width="0.06" height="5.62"/>
							<rect x="295.28" y="278.52" class="st131" width="0.06" height="5.62"/>
							<rect x="295.34" y="278.52" class="st132" width="0.06" height="5.62"/>
							<rect x="295.4" y="278.52" class="st133" width="0.06" height="5.62"/>
							<rect x="295.46" y="278.52" class="st134" width="0.06" height="5.62"/>
							<rect x="295.51" y="278.52" class="st135" width="0.06" height="5.62"/>
							<rect x="295.57" y="278.52" class="st136" width="0.06" height="5.62"/>
							<rect x="295.63" y="278.52" class="st137" width="0.06" height="5.62"/>
							<rect x="295.69" y="278.52" class="st138" width="0.06" height="5.62"/>
							<rect x="295.75" y="278.52" class="st139" width="0.06" height="5.62"/>
							<rect x="295.8" y="278.52" class="st140" width="0.06" height="5.62"/>
							<rect x="295.86" y="278.52" class="st141" width="0.06" height="5.62"/>
							<rect x="295.92" y="278.52" class="st142" width="0.06" height="5.62"/>
							<rect x="295.98" y="278.52" class="st143" width="0.06" height="5.62"/>
							<rect x="296.04" y="278.52" class="st144" width="0.06" height="5.62"/>
							<rect x="296.09" y="278.52" class="st145" width="0.06" height="5.62"/>
							<rect x="296.15" y="278.52" class="st146" width="0.06" height="5.62"/>
							<rect x="296.21" y="278.52" class="st147" width="0.06" height="5.62"/>
							<rect x="296.27" y="278.52" class="st148" width="0.06" height="5.62"/>
							<rect x="296.33" y="278.52" class="st149" width="0.06" height="5.62"/>
							<rect x="296.39" y="278.52" class="st150" width="0.06" height="5.62"/>
							<rect x="296.44" y="278.52" class="st151" width="0.06" height="5.62"/>
							<rect x="296.5" y="278.52" class="st152" width="0.06" height="5.62"/>
							<rect x="296.56" y="278.52" class="st153" width="0.06" height="5.62"/>
							<rect x="296.62" y="278.52" class="st154" width="0.06" height="5.62"/>
							<rect x="296.68" y="278.52" class="st155" width="0.06" height="5.62"/>
							<rect x="296.73" y="278.52" class="st156" width="0.06" height="5.62"/>
							<rect x="296.79" y="278.52" class="st157" width="0.06" height="5.62"/>
							<rect x="296.85" y="278.52" class="st158" width="0.06" height="5.62"/>
							<rect x="296.91" y="278.52" class="st159" width="0.06" height="5.62"/>
							<rect x="296.97" y="278.52" class="st160" width="0.06" height="5.62"/>
							<rect x="297.02" y="278.52" class="st161" width="0.06" height="5.62"/>
							<rect x="297.08" y="278.52" class="st162" width="0.06" height="5.62"/>
							<rect x="297.14" y="278.52" class="st163" width="0.06" height="5.62"/>
							<rect x="297.2" y="278.52" class="st164" width="0.06" height="5.62"/>
							<rect x="297.26" y="278.52" class="st165" width="0.06" height="5.62"/>
							<rect x="297.31" y="278.52" class="st166" width="0.06" height="5.62"/>
							<rect x="297.37" y="278.52" class="st167" width="0.06" height="5.62"/>
							<rect x="297.43" y="278.52" class="st168" width="0.06" height="5.62"/>
							<rect x="297.49" y="278.52" class="st169" width="0.06" height="5.62"/>
							<path class="st169" d="M297.55,284.13v-5.62V284.13z"/>
						</g>
					</g>
				</g>
			</g>
			<g>
				<g>
					<g>
						<path class="st170" d="M296.42,279.83c0,0-1.51,0.83-1.41,1.09c0.1,0.26,0.3,0.29,0.3,0.29l-0.47,0.62c0,0-0.08,0.59,0.59,0.5
							c0,0-0.13,0.54,0.5,0.38c0,0,0.08,0.4,0.38,0.37c0.31-0.02,1.26-0.6,1.26-0.6s0.15-0.21-0.14-0.54c0,0,0.17-0.38-0.14-0.66
							c0,0,0.09-0.32-0.25-0.63c0,0,0.14-0.74-0.46-0.91C296.58,279.76,296.48,279.8,296.42,279.83z"/>
					</g>
				</g>
			</g>
			<g>
				<g>
					<g>
						<g>
							<defs>
								<polygon id="SVGID_7_" points="291.98,279.63 297.32,278.64 296.45,274.26 291.16,275.47 								"/>
							</defs>
							<clipPath id="SVGID_8_">
								<use xlink:href="#SVGID_7_"  style="overflow:visible;"/>
							</clipPath>
							<path class="st171" d="M291.16,274.26v5.37V274.26z"/>
							<rect x="291.16" y="274.26" class="st171" width="0.09" height="5.37"/>
							<rect x="291.25" y="274.26" class="st172" width="0.09" height="5.37"/>
							<rect x="291.35" y="274.26" class="st173" width="0.1" height="5.37"/>
							<rect x="291.44" y="274.26" class="st174" width="0.09" height="5.37"/>
							<rect x="291.54" y="274.26" class="st175" width="0.09" height="5.37"/>
							<rect x="291.63" y="274.26" class="st176" width="0.09" height="5.37"/>
							<rect x="291.73" y="274.26" class="st177" width="0.09" height="5.37"/>
							<rect x="291.82" y="274.26" class="st178" width="0.09" height="5.37"/>
							<rect x="291.92" y="274.26" class="st179" width="0.09" height="5.37"/>
							<rect x="292.01" y="274.26" class="st180" width="0.09" height="5.37"/>
							<rect x="292.11" y="274.26" class="st181" width="0.1" height="5.37"/>
							<rect x="292.2" y="274.26" class="st182" width="0.09" height="5.37"/>
							<rect x="292.3" y="274.26" class="st183" width="0.09" height="5.37"/>
							<rect x="292.39" y="274.26" class="st184" width="0.09" height="5.37"/>
							<rect x="292.49" y="274.26" class="st185" width="0.09" height="5.37"/>
							<rect x="292.58" y="274.26" class="st186" width="0.09" height="5.37"/>
							<rect x="292.68" y="274.26" class="st187" width="0.09" height="5.37"/>
							<rect x="292.77" y="274.26" class="st188" width="0.09" height="5.37"/>
							<rect x="292.86" y="274.26" class="st189" width="0.1" height="5.37"/>
							<rect x="292.96" y="274.26" class="st190" width="0.09" height="5.37"/>
							<rect x="293.06" y="274.26" class="st191" width="0.09" height="5.37"/>
							<rect x="293.15" y="274.26" class="st192" width="0.09" height="5.37"/>
							<rect x="293.24" y="274.26" class="st193" width="0.09" height="5.37"/>
							<rect x="293.34" y="274.26" class="st194" width="0.09" height="5.37"/>
							<rect x="293.43" y="274.26" class="st195" width="0.09" height="5.37"/>
							<rect x="293.53" y="274.26" class="st196" width="0.09" height="5.37"/>
							<rect x="293.62" y="274.26" class="st197" width="0.09" height="5.37"/>
							<rect x="293.72" y="274.26" class="st198" width="0.09" height="5.37"/>
							<rect x="293.81" y="274.26" class="st199" width="0.09" height="5.37"/>
							<rect x="293.91" y="274.26" class="st200" width="0.1" height="5.37"/>
							<rect x="294" y="274.26" class="st201" width="0.09" height="5.37"/>
							<rect x="294.1" y="274.26" class="st202" width="0.09" height="5.37"/>
							<rect x="294.19" y="274.26" class="st203" width="0.09" height="5.37"/>
							<rect x="294.29" y="274.26" class="st204" width="0.09" height="5.37"/>
							<rect x="294.38" y="274.26" class="st205" width="0.09" height="5.37"/>
							<rect x="294.48" y="274.26" class="st206" width="0.09" height="5.37"/>
							<rect x="294.57" y="274.26" class="st207" width="0.09" height="5.37"/>
							<rect x="294.67" y="274.26" class="st208" width="0.1" height="5.37"/>
							<rect x="294.76" y="274.26" class="st209" width="0.09" height="5.37"/>
							<rect x="294.86" y="274.26" class="st210" width="0.09" height="5.37"/>
							<rect x="294.95" y="274.26" class="st211" width="0.09" height="5.37"/>
							<rect x="295.05" y="274.26" class="st212" width="0.09" height="5.37"/>
							<rect x="295.14" y="274.26" class="st213" width="0.09" height="5.37"/>
							<rect x="295.24" y="274.26" class="st214" width="0.09" height="5.37"/>
							<rect x="295.33" y="274.26" class="st215" width="0.09" height="5.37"/>
							<rect x="295.43" y="274.26" class="st216" width="0.09" height="5.37"/>
							<rect x="295.52" y="274.26" class="st217" width="0.1" height="5.37"/>
							<rect x="295.62" y="274.26" class="st218" width="0.09" height="5.37"/>
							<rect x="295.71" y="274.26" class="st219" width="0.09" height="5.37"/>
							<rect x="295.81" y="274.26" class="st220" width="0.09" height="5.37"/>
							<rect x="295.9" y="274.26" class="st221" width="0.09" height="5.37"/>
							<rect x="295.99" y="274.26" class="st222" width="0.09" height="5.37"/>
							<rect x="296.09" y="274.26" class="st223" width="0.09" height="5.37"/>
							<rect x="296.18" y="274.26" class="st224" width="0.09" height="5.37"/>
							<rect x="296.28" y="274.26" class="st225" width="0.1" height="5.37"/>
							<rect x="296.37" y="274.26" class="st226" width="0.09" height="5.37"/>
							<rect x="296.47" y="274.26" class="st227" width="0.09" height="5.37"/>
							<rect x="296.56" y="274.26" class="st228" width="0.09" height="5.37"/>
							<rect x="296.66" y="274.26" class="st229" width="0.09" height="5.37"/>
							<rect x="296.75" y="274.26" class="st230" width="0.09" height="5.37"/>
							<rect x="296.85" y="274.26" class="st231" width="0.09" height="5.37"/>
							<rect x="296.94" y="274.26" class="st232" width="0.09" height="5.37"/>
							<rect x="297.04" y="274.26" class="st233" width="0.09" height="5.37"/>
							<rect x="297.13" y="274.26" class="st234" width="0.1" height="5.37"/>
							<rect x="297.23" y="274.26" class="st235" width="0.09" height="5.37"/>
							<path class="st235" d="M297.32,279.63v-5.37V279.63z"/>
						</g>
					</g>
				</g>
			</g>
			<g>
				<g>
					<g>
						<path class="st12" d="M293.77,280.96c0,0,1.18-0.03,1.84,0.23c0.15,0.06,0.28,0.15,0.28,0.31c0,0.16-0.23,0.36-0.74,0.4
							c-0.51,0.04-1.16,0.33-1.16,0.33S293.45,282.11,293.77,280.96z"/>
					</g>
				</g>
			</g>
			<g>
				<g>
					<g>
						<path class="st236" d="M282.09,323.16c-0.09,0.47-0.18,0.95-0.28,1.43l-3.03-8.02C279.18,317.38,282.09,323.16,282.09,323.16z
							"/>
					</g>
				</g>
			</g>
		</g>
		<g>
			<path class="st16" d="M115.3,227.58H67.48c-3.53,0-6.4-2.86-6.4-6.4v-75.55c0-3.53,2.86-6.4,6.4-6.4h47.82
				c3.53,0,6.4,2.86,6.4,6.4v75.55C121.7,224.71,118.83,227.58,115.3,227.58z"/>
		</g>
		<g>
			<g>
				<g>
					<g>
						<g>
							<rect x="112.12" y="196.29" class="st237" width="3.14" height="23.9"/>
						</g>
					</g>
				</g>
			</g>
			<g>
				<g>
					<g>
						<g>
							<rect x="105.91" y="198.97" class="st237" width="3.14" height="21.22"/>
						</g>
					</g>
				</g>
			</g>
			<g>
				<g>
					<g>
						<g>
							<rect x="99.17" y="202.45" class="st237" width="3.14" height="17.74"/>
						</g>
					</g>
				</g>
			</g>
			<g>
				<g>
					<g>
						<g>
							<rect x="92.25" y="206.84" class="st237" width="3.14" height="13.35"/>
						</g>
					</g>
				</g>
			</g>
			<g>
				<g>
					<g>
						<polygon class="st237" points="73.5,204.01 72.82,203.77 78.75,187.15 91.59,183.76 96.21,165.52 106.12,161.15 
							108.34,146.97 109.05,147.08 106.77,161.65 96.82,166.04 92.19,184.35 79.3,187.76 						"/>
					</g>
				</g>
			</g>
			<g>
				<g>
					<path class="st16" d="M93.38,182.83c0.67,0.82,0.55,2.04-0.27,2.71c-0.82,0.67-2.04,0.55-2.71-0.27
						c-0.67-0.82-0.55-2.04,0.27-2.71C91.49,181.89,92.71,182.01,93.38,182.83z"/>
				</g>
			</g>
			<g>
				<g>
					<path class="st237" d="M93.34,185.82c-0.98,0.8-2.42,0.65-3.22-0.32c-0.8-0.98-0.65-2.42,0.32-3.22
						c0.98-0.8,2.42-0.65,3.22,0.32C94.46,183.58,94.31,185.03,93.34,185.82z M90.9,182.84c-0.67,0.55-0.77,1.53-0.22,2.2
						c0.55,0.67,1.54,0.77,2.2,0.22c0.67-0.55,0.77-1.54,0.22-2.2C92.56,182.39,91.57,182.29,90.9,182.84z"/>
				</g>
			</g>
			<g>
				<g>
					<path class="st16" d="M98.06,164.67c0.67,0.82,0.55,2.04-0.27,2.71c-0.82,0.67-2.04,0.55-2.71-0.27
						c-0.67-0.82-0.55-2.04,0.27-2.71C96.17,163.72,97.38,163.85,98.06,164.67z"/>
				</g>
			</g>
			<g>
				<g>
					<path class="st237" d="M98.01,167.66c-0.98,0.8-2.42,0.65-3.22-0.32c-0.8-0.98-0.65-2.42,0.32-3.22
						c0.98-0.8,2.42-0.65,3.22,0.32C99.14,165.42,98.99,166.86,98.01,167.66z M95.57,164.68c-0.67,0.55-0.77,1.54-0.22,2.2
						c0.55,0.67,1.54,0.77,2.2,0.22c0.67-0.55,0.77-1.53,0.22-2.2C97.23,164.23,96.24,164.13,95.57,164.68z"/>
				</g>
			</g>
			<g>
				<g>
					<path class="st16" d="M107.82,160.17c0.67,0.82,0.55,2.04-0.27,2.71c-0.82,0.67-2.04,0.55-2.71-0.27
						c-0.67-0.82-0.55-2.04,0.27-2.71C105.93,159.22,107.14,159.35,107.82,160.17z"/>
				</g>
			</g>
			<g>
				<g>
					<path class="st237" d="M107.77,163.16c-0.98,0.8-2.42,0.65-3.22-0.32c-0.8-0.98-0.65-2.42,0.32-3.22
						c0.98-0.8,2.42-0.65,3.22,0.32C108.9,160.92,108.75,162.36,107.77,163.16z M105.33,160.18c-0.67,0.55-0.77,1.54-0.22,2.2
						c0.55,0.67,1.53,0.77,2.2,0.22c0.67-0.55,0.77-1.54,0.22-2.2C106.99,159.73,106,159.63,105.33,160.18z"/>
				</g>
			</g>
			<g>
				<g>
					<path class="st16" d="M80.59,186.4c0.67,0.82,0.55,2.04-0.27,2.71c-0.83,0.67-2.04,0.55-2.71-0.27s-0.55-2.04,0.27-2.71
						C78.7,185.45,79.91,185.57,80.59,186.4z"/>
				</g>
			</g>
			<g>
				<g>
					<path class="st237" d="M80.54,189.39c-0.98,0.8-2.42,0.65-3.22-0.32c-0.8-0.98-0.65-2.42,0.32-3.22
						c0.98-0.8,2.42-0.65,3.22,0.32C81.67,187.15,81.52,188.59,80.54,189.39z M78.1,186.41c-0.67,0.55-0.77,1.53-0.22,2.2
						c0.55,0.67,1.54,0.77,2.2,0.22c0.67-0.55,0.77-1.54,0.22-2.2C79.76,185.96,78.77,185.86,78.1,186.41z"/>
				</g>
			</g>
			<g>
				<g>
					<g>
						<g>
							<path class="st238" d="M85.43,168.31H68.9c-0.76,0-1.38-0.62-1.38-1.38v-1.23c0-0.76,0.62-1.38,1.38-1.38h16.53
								c0.76,0,1.38,0.62,1.38,1.38v1.23C86.82,167.69,86.2,168.31,85.43,168.31z"/>
						</g>
					</g>
				</g>
			</g>
			<g>
				<g>
					<g>
						<g>
							<path class="st238" d="M85.43,161.32H68.9c-0.76,0-1.38-0.62-1.38-1.38v-1.23c0-0.76,0.62-1.38,1.38-1.38h16.53
								c0.76,0,1.38,0.62,1.38,1.38v1.23C86.82,160.7,86.2,161.32,85.43,161.32z"/>
						</g>
					</g>
				</g>
			</g>
		</g>
		<g>
			<g>
				<path class="st13" d="M53.67,171.53c0,0-0.56,5.52,0.46,6.9c0,0-2.7-0.59-3.32-1.52S53.67,171.53,53.67,171.53z"/>
			</g>
			<g>
				<g>
					<path class="st12" d="M70.52,189.15c0,0,0.98-0.66,1.13-0.75c0.15-0.1,0.66-0.08,1.23-0.01c0.58,0.07,1.32,0.42,1.37,0.51
						c0.04,0.09,0.13,0.16,0.1,0.41c-0.04,0.25-0.21,0.45-0.21,0.45s0.1,0.33-0.12,0.56c0,0,0.08,0.32-0.22,0.53
						c0,0,0.07,0.31-0.16,0.45c0,0-0.5-0.02-0.69,0.03c-0.19,0.05-1.23-0.05-2.22-0.31C70.73,191.02,69.62,190.78,70.52,189.15z"/>
				</g>
			</g>
			<g>
				<g>
					<path class="st94" d="M72.19,189.6c0,0-0.29,0.51-0.45,0.62c-0.16,0.1,0.75,1.08,0.75,1.08S72.8,189.98,72.19,189.6z"/>
				</g>
			</g>
			<g>
				<g>
					<path class="st12" d="M69.94,189.24c0,0,0.62-0.07,1-0.24c0.38-0.18-0.07,1.92-0.07,1.92s-0.92-0.64-1.52-0.65
						C68.74,190.24,69.94,189.24,69.94,189.24z"/>
				</g>
			</g>
			<g>
				<g>
					<path class="st239" d="M44.42,245.01c0,0,1.93,2.82,2.6,3.41c0,0,1.34,0.7,1.38,1.25c0.08,1.05,0.13,1.67-1.63,1.72
						c-1.77,0.05-2.87,0-3.2-1.08c-0.32-1.07-0.88-1.91-0.88-1.91l-0.13,2.79h-0.4c0,0-0.18-2.79-0.2-3.19
						c-0.02-0.4-0.29-1.93,0.55-2.61C43.35,244.72,44.42,245.01,44.42,245.01z"/>
				</g>
			</g>
			<g>
				<g>
					<path class="st239" d="M47.27,248.57c0,0-0.96,0.27-2.09-0.02c-1.14-0.29-2.23-3.01-2.56-3.23l-0.29-1.1h2.22
						c0,0,0.02,0.81,0.38,1.51C45.27,246.42,47.27,248.57,47.27,248.57z"/>
				</g>
			</g>
			<g>
				<g>
					<path class="st239" d="M56.92,243.96c0,0,0.29,0.68,0.83,1.39c0.4,0.52,1.64,2.66,2.19,2.81c0.55,0.15,2.24,0.45,2.39,1.39
						c0.15,0.95,0.22,1.62-1.44,1.69c-1.67,0.07-2.76,0.17-3.56-1c-0.8-1.17-2.07-2.02-2.07-2.02v3.05h-0.65c0,0-0.3-3.18-0.47-3.4
						c-0.17-0.22-0.62-2.66,0.92-3.93C56.61,242.69,56.92,243.96,56.92,243.96z"/>
				</g>
			</g>
			<g>
				<g>
					<path class="st239" d="M59.94,248.16c0,0-1.49,0.37-2.07,0c-0.57-0.37-2.52-3.66-3.16-3.86c0,0,0.62-1.27,2.2-0.35
						C56.92,243.96,59.52,247.62,59.94,248.16z"/>
				</g>
			</g>
			<g>
				<g>
					<path class="st240" d="M43.57,198.24c0,0-2.11,2.74-2.68,5.99c-0.57,3.25,0.34,14.15,0.31,15.76c-0.02,1.61-1.42,6.6-1.12,9.63
						c0.3,3.02,1.86,15.65,1.86,15.65l3.65-0.07c0,0-0.73-13.62-0.54-14.89c0.19-1.27,0.78-6.67,0.86-7.19
						c0.08-0.52,4.16-14.35,4.16-16.69S48.65,194.42,43.57,198.24z"/>
				</g>
			</g>
			<g>
				<g>
					<path class="st240" d="M54.15,199.31c0,0,3.46,13.21,3.87,15.04c0.41,1.83,1.23,4.22,1.2,4.56c-0.04,0.33-0.44,5.97-0.44,5.97
						l-0.98,19.19h-3.65c0,0-1.17-12.21-1.36-14.67c-0.19-2.46,1.34-6.27,0.97-7.32c-0.37-1.04-6.01-13.11-6.01-13.11
						S43.48,195.48,54.15,199.31z"/>
				</g>
			</g>
			<g>
				<g>
					<path class="st90" d="M53.08,179.55c0,0,1.38,0.13,2.43,1.25c1.05,1.12,2.03,2.91,2.3,3.5c0.27,0.6,4.11,6.13,4.31,6.26
						c0.2,0.12,1.88-0.32,3.22-0.43c2.19-0.18,5.47-1.3,5.47-1.3l0.49,2.48c0,0-8.07,2.6-9.93,2.15c-2.28-0.56-7.52-7.29-7.52-7.29
						S49.94,181.59,53.08,179.55z"/>
				</g>
			</g>
			<g>
				<g>
					<path class="st90" d="M50.66,178.57c0,0,1.79,0.85,2.41,0.97c0.62,0.12,3.04,3.26,3.46,4.41c0.42,1.14,0,2.86-0.87,4.88
						c-0.87,2.02-0.05,2.69-0.45,4.71c-0.4,2.02-0.4,7.51-0.32,8.63c0.07,1.12-11.52,3.23-13.84,1.19c0,0,1.57-5.17,3.42-7.11
						c0.4-0.42,0.36-3.22,0.09-3.91c-0.27-0.7-3.36-5.9-3.36-5.9s-0.23-5.28,1.12-6.32c1.17-0.91,4.36-1.23,4.93-1.43
						C47.83,178.49,49.49,178.4,50.66,178.57z"/>
				</g>
			</g>
			<g>
				<g>
					<path class="st241" d="M51.24,182.57l1.09-1.28l-0.95-3.36C51.38,177.94,51.06,179.81,51.24,182.57z"/>
				</g>
			</g>
			<g>
				<g>
					<path class="st12" d="M44.41,179.55c0,0-2.26-0.65-3.55,1.84c-1.29,2.49-0.97,3.83-1.27,4.95c-0.3,1.12-1.49,8.61-1.57,8.94
						c-0.08,0.32-1.22,4.13-1.07,5.3c0.15,1.17,1.22,10.03,1.17,10.33c-0.05,0.3,2.07-0.29,2.07-0.29s-0.09-9.05-0.01-9.8
						c0.07-0.75,0.15-4.67,0.71-5.68c0.56-1.01,1.94-7.17,2.24-7.8C43.42,186.71,46.31,180.35,44.41,179.55z"/>
				</g>
			</g>
			<g>
				<g>
					<path class="st12" d="M51.52,176.51c0,0-0.36,3.29-0.28,4.36c0,0-1.86,1.87-3.98-2.18c0,0,0.89-1.67,0.22-3.94
						C46.81,172.48,51.52,176.51,51.52,176.51z"/>
				</g>
			</g>
			<g>
				<g>
					<polygon class="st12" points="51.24,180.86 51.24,182.57 49.23,180.8 					"/>
				</g>
			</g>
			<g>
				<g>
					<polygon class="st241" points="51.24,182.57 50.35,181.47 47.35,178.48 46.23,178.98 					"/>
				</g>
			</g>
			<g>
				<g>
					<polygon class="st242" points="52.32,181.29 53.7,181.67 51.38,177.94 					"/>
				</g>
			</g>
			<g>
				<g>
					<polygon class="st242" points="50.35,181.47 49.09,183.48 46.18,178.91 47.43,178.27 					"/>
				</g>
			</g>
			<g>
				<path class="st241" d="M56.73,189.57c0,0,0.45-2.98-0.03-4.79c0,0-0.26,1.46-0.91,3.74L56.73,189.57z"/>
			</g>
			<g>
				<path class="st241" d="M42.81,189.18c0,0,1.24-4.1,1.31-4.32c0,0-0.08,3.77-0.56,5.63C43.56,190.49,43.11,189.69,42.81,189.18z"
					/>
			</g>
			<g>
				<polygon class="st243" points="88.97,168.63 69.47,193.2 70.15,193.73 				"/>
			</g>
			<g>
				<g>
					<path class="st170" d="M74.1,188.87c0,0-1.46-0.14-1.51,0.1c-0.05,0.23,0.07,0.35,0.07,0.35l-0.63,0.22
						c0,0-0.33,0.38,0.17,0.63c0,0-0.35,0.32,0.17,0.51c0,0-0.14,0.31,0.09,0.44c0.23,0.13,1.17,0.18,1.17,0.18s0.2-0.08,0.16-0.45
						c0,0,0.3-0.19,0.22-0.53c0,0,0.22-0.19,0.12-0.56c0,0,0.45-0.46,0.11-0.86C74.25,188.89,74.17,188.87,74.1,188.87z"/>
				</g>
			</g>
			<g>
				<g>
					<path class="st12" d="M71.7,188.39c0,0,0.85,0.54,1.19,1.04c0.08,0.11,0.13,0.24,0.05,0.35c-0.08,0.11-0.34,0.15-0.72-0.07
						c-0.38-0.22-0.97-0.32-0.97-0.32S70.92,189.06,71.7,188.39z"/>
				</g>
			</g>
			<g>
				<path class="st12" d="M50.01,165.32c0,0,3.3-0.09,3.91,3.82c0.61,3.91-0.8,7.34-1.35,7.89c-0.55,0.55-3.85,0.13-4.63-1.9
					c-0.78-2.03-1.92-3.51-1.75-5.25C46.37,168.13,45.95,165.25,50.01,165.32z"/>
			</g>
			<g>
				<path class="st13" d="M54.06,170.61c0,0,0.88-4.87-3.5-5.75c-4.38-0.87-5.92,2.12-6.33,3.91c-0.42,1.78,0.08,6.81,0.08,6.81
					s2.92,2.56,4.66,3.22c0,0-1.46-5.35-0.91-9.18c0,0,3.56,0.56,5.92-0.02C53.98,169.61,54.05,170.4,54.06,170.61z"/>
			</g>
			<g>
				<path class="st14" d="M51.44,177.24c0,0-1.15-0.01-2.7-1.02c0,0,1.1,1.38,2.62,1.88C51.36,178.1,51.46,177.41,51.44,177.24z"/>
			</g>
			<g>
				
					<rect x="32.87" y="203.38" transform="matrix(0.9869 -0.1612 0.1612 0.9869 -33.0311 9.0587)" class="st244" width="12.91" height="9.55"/>
			</g>
			<g>
				<g>
					<g>
						<g>
							<g>
								<g>
									<path class="st12" d="M37.68,213.74c0,0-0.2-0.33-0.22-0.51c0,0-0.01-0.34-0.03-0.58c-0.01-0.08-0.01-0.14-0.02-0.18
										c-0.04-0.18-0.17-0.55-0.15-1c0.03-0.45,0.64-2.36,0.64-2.36l1.13,0.04l1.06-0.11c0,0,1.28,2.45,1.31,2.87
										c0,0.04,0,0.08,0,0.12c-0.01,0.36-0.18,0.62-0.21,0.81c-0.01,0.07-0.17,0.75-0.35,0.84c-0.26,0.13-0.49,0.11-0.66,0.01
										c0,0-0.52,0.23-0.88,0.13c0,0-0.47,0.23-0.89-0.03C38.4,213.78,37.9,213.96,37.68,213.74z"/>
								</g>
							</g>
						</g>
					</g>
				</g>
			</g>
			<g>
				<g>
					<path class="st90" d="M44.41,179.55c0,0-2.26-0.65-3.55,1.84c-1.29,2.49-1.29,3.55-1.46,4.77c-0.16,1.15-1.74,7.97-1.82,8.29
						c-0.07,0.32-0.59,4.58-0.63,6.14c-0.03,1.18,0.25,8.91,0.2,9.21c-0.05,0.3,3.58-0.52,3.58-0.52s-0.4-7.13-0.33-7.88
						c0.07-0.75,0.23-4.47,0.6-5.56c0.43-1.28,2.12-7.76,2.42-8.4C43.71,186.79,46.31,180.35,44.41,179.55z"/>
				</g>
			</g>
		</g>
		<g>
			<g>
				<g>
					<path class="st245" d="M161.16,246.57l0.23-2.19c0,0-3.09-0.02-3.45,0.24c0,0,0.26,1.84,0.29,2.11
						C158.28,247.01,161.16,246.57,161.16,246.57z"/>
				</g>
			</g>
			<g>
				<g>
					<path class="st246" d="M155.92,251.15c3.67-0.03,5.44,0.22,5.84-0.38c0.39-0.6-0.57-4.4-0.57-4.4s-0.87,0.32-2.97,0.12
						c0,0-0.91,1.11-1.8,1.59c-0.88,0.48-2.27,0.67-2.8,1.17C153.24,249.62,152.25,251.18,155.92,251.15z"/>
				</g>
			</g>
			<g>
				<g>
					<path class="st245" d="M140.49,246.57l0.23-2.19c0,0-3.09-0.02-3.45,0.24c0,0,0.26,1.84,0.29,2.11
						C137.61,247.01,140.49,246.57,140.49,246.57z"/>
				</g>
			</g>
			<g>
				<g>
					<path class="st246" d="M135.25,251.15c3.67-0.1,5.44,0.22,5.84-0.38c0.39-0.6-0.57-4.4-0.57-4.4s-0.82,0.34-2.97,0.12
						c0,0-0.92,1.11-1.8,1.59c-0.88,0.48-4.14,0.88-4.66,1.38C130.71,249.83,130.08,251.28,135.25,251.15z"/>
				</g>
			</g>
			<g>
				<g>
					<path class="st6" d="M156.93,197.16c0,0,1.54,4.56,1.33,8.49c-0.2,3.93,0.79,8.23,1.2,12.34c0.45,4.58,2.31,15.41,2.38,17.86
						c0.07,2.45-0.29,10.27-0.29,10.27l-3.72,0.09c0,0-3.12-18.95-3.93-20.88c-0.81-1.93-4.82-15.72-4.96-17.26
						C148.81,206.52,156.93,197.16,156.93,197.16z"/>
				</g>
			</g>
			<g>
				<g>
					<path class="st6" d="M141.29,197.98c0,0-2.04,10.77-2.31,13.18c-0.27,2.41-0.45,11.64-0.58,13.15
						c-0.13,1.5-0.9,19.68-1.62,21.91h4.75c0,0,3.65-13.21,3.65-19.46s2.82-13.59,4.64-17.71c1.82-4.12,5.99-4.22,7.11-11.87
						C156.93,197.16,142.81,195.55,141.29,197.98z"/>
				</g>
			</g>
			<g>
				<g>
					<path class="st12" d="M150.95,161.16c0,0-3.75-1.4-5.48,1.45c-1.73,2.85-1.56,8.56,0.33,9.27c1.89,0.7,4.73,0.34,5.69-1.45
						c0.97-1.79,1.84-4.37,1.8-6.09C153.26,162.61,151.94,161.66,150.95,161.16z"/>
				</g>
			</g>
			<g>
				<g>
					<path class="st12" d="M146.43,171.7c0,0,0.15,0.98-0.1,1.47c-0.25,0.48,4.71,0.5,4.71,0.5s0.4-2.63,1.17-4.86
						C152.98,166.59,146.43,171.7,146.43,171.7z"/>
				</g>
			</g>
			<g>
				<g>
					<path class="st247" d="M152.22,168.81c0,0-0.34,0.56-1.74,0.35c-1.4-0.22-3.11-2.08-3.69-2.28c-0.58-0.2-0.59-0.55-0.59-0.55
						l-0.37,0.53l-0.62,0.04c0,0,0.57-1.66-0.29-2.34c-0.85-0.68,0.89-5.39,5.37-3.82c0,0,3.21,0.63,3.41,2.59
						C153.91,165.4,152.99,167.83,152.22,168.81z"/>
				</g>
			</g>
			<g>
				<g>
					<path class="st248" d="M146.04,173.11c0,0,0.02-0.92,0.43-1.01c0.42-0.09,4.63-0.49,5.14-0.29v1.08
						C151.62,172.88,150.63,173.49,146.04,173.11z"/>
				</g>
			</g>
			<g>
				<g>
					<path class="st12" d="M146.29,165.61c0.08-0.33,0.91-1.27,1.23-0.26c0.32,1.01-0.48,2.36-0.93,2.24
						C146.15,167.47,146.09,166.44,146.29,165.61z"/>
				</g>
			</g>
			<g>
				<g>
					<path class="st249" d="M146.04,173.11c0,0-2.31,0.83-4.98,1.96c0,0-3.07,1.15-3.41,4.54c-0.18,1.8-2.09,11.36-2.46,12.17
						c-0.36,0.81-4.61,13.8-4.76,14.07c-0.15,0.27,3.47,1.77,3.71,1.65c0.24-0.12,4.12-11.85,4.51-12.72c0,0,2.23-7.04,2.29-8.08
						c0,0,0.06,2.99,0.18,3.83c0.12,0.84-1.99,17.13-1.92,17.58c0.06,0.45,9.57,1.02,13.37,0.6c3.81-0.42,6.88-1.29,6.88-1.29
						s-2.99-12.86-2.9-14.28c0.2-3.11,1.24-8.96,1.24-8.96l3.1,5.85l-3.97,10.22l0.91,3.1c0,0,7.38-11.15,7.62-12.17
						c0.24-1.02-0.36-2.32-0.75-3.16c-0.39-0.84-2.95-7.22-3.55-8.12c-0.6-0.9-1.61-4.5-4.06-5.5c-2.05-0.84-5.48-1.52-5.48-1.52
						L146.04,173.11z"/>
				</g>
			</g>
			<g>
				<g>
					
						<rect x="124.85" y="197.2" transform="matrix(0.9687 0.2484 -0.2484 0.9687 54.726 -26.8637)" class="st250" width="17.95" height="12.52"/>
				</g>
			</g>
			<g>
				<g>
					<path class="st251" d="M128.93,208.51c0,0-0.5,0.8-0.68,1.03c-0.18,0.23,0.45,0.37,0.71,0.14
						C129.23,209.46,128.93,208.51,128.93,208.51z"/>
				</g>
			</g>
			<g>
				<g>
					<path class="st252" d="M132.55,211.26c0,0,0.29-0.31,0.36-0.5c0,0,0.09-0.37,0.17-0.62c0.03-0.08,0.05-0.15,0.07-0.2
						c0.08-0.18,0.32-0.56,0.4-1.06c0.08-0.5,0.29-2.72,0.29-2.72l-1.35-0.34l-1.08-0.23c0,0-2.34,2.33-2.46,2.79
						c-0.01,0.04-0.02,0.09-0.03,0.13c-0.07,0.39,0.05,0.72,0.03,0.93c0,0.08,0.01,0.85,0.19,1c0.25,0.2,0.5,0.24,0.71,0.17
						c0,0,0.51,0.37,0.93,0.35c0,0,0.46,0.36,0.97,0.18C131.75,211.13,132.25,211.45,132.55,211.26z"/>
				</g>
			</g>
			<g>
				<g>
					<path class="st249" d="M137.81,197.19c0,0-3.09,9.35-3.65,10.33c0,0-2.26-0.48-3.71-1.65l3.39-10.08L137.81,197.19z"/>
				</g>
			</g>
		</g>
		<g>
			<g>
				<path class="st253" d="M416.19,211.76c0,0,11.45-33.59-10.4-44.01c-21.86-10.41-40.42,4.64-43.92,12.79
					c-3.51,8.15-2.58,22.96,0.41,33.29c2.99,10.33,2.55,26.05-3.94,31.31c-6.5,5.26-14.55,13.99-14.15,31.77
					c0.25,11.03,43.4-28.21,43.4-28.21L416.19,211.76z"/>
			</g>
			<g>
				<path class="st102" d="M385.47,251.72c0,0-17.97,3.98-25.1,8.15c-7.13,4.17-22.97,23.34-22.97,31.58
					c0,8.24,69.26,15.94,69.26,15.94l13.13,47.92c0,0,35.01-8.54,39.17-15.63c4.17-7.08-13.29-57.86-16.28-68.14
					c-3.05-10.48-15.6-17.79-30.18-19.84C397.91,249.68,385.47,251.72,385.47,251.72z"/>
			</g>
			<g>
				<path class="st12" d="M411.25,251.56c0,0-0.4,21.84-17.72,22.49c-17.32,0.65-13.71-20.95-13.71-20.95
					S392.48,247.96,411.25,251.56z"/>
			</g>
			<g>
				<path class="st253" d="M418.58,185.66c0,0,6.13,35.12-11.32,60.49C389.19,272.43,418.58,185.66,418.58,185.66z"/>
			</g>
			<g>
				<path class="st12" d="M407.54,236.12c0,0-1.2,10.45,0.81,16.94c2.01,6.5-26.48,6.68-26.46,1.33c0.02-6.07,2.91-11.14,0.19-21.54
					C379.34,222.45,407.54,236.12,407.54,236.12z"/>
			</g>
			<g>
				<path class="st14" d="M385.43,237.45c0,0,9,9.37,20.5,0.98c0,0-0.95,5.99-9.22,6.76C388.44,245.96,385.43,237.45,385.43,237.45z
					"/>
			</g>
			<g>
				<path class="st12" d="M396.7,173.48c0,0,22.73,6.73,19.49,38.28c-3.25,31.55-18.09,29.93-19.49,30.16
					c-1.39,0.23-19.02,1.39-24.59-36.89C366.54,166.75,396.7,173.48,396.7,173.48z"/>
			</g>
			<g>
				<path class="st253" d="M390.83,187.55c0,0,12.35,19.65,25.36,24.21c0,0,7.1-32.97-22.22-39.88
					c-29.32-6.91-24.73,33.3-22.54,44.03C371.42,215.91,377.53,200.13,390.83,187.55z"/>
			</g>
			<g>
				<path class="st254" d="M374.26,184.59c0,0,6.5-12.59,17.48-13.16c10.98-0.56,17.51,8.96,17.51,8.96s-4.29-10.73-17.5-10.73
					C378.55,169.67,374.26,184.59,374.26,184.59z"/>
			</g>
		</g>
		<g>
			<polygon class="st255" points="418.97,283.64 426.68,355.31 325.2,355.31 317.49,283.64 			"/>
		</g>
		<g>
			<path class="st255" d="M424.23,352.85H321.87l-7.8-72.56h102.37L424.23,352.85z M322.66,351.97h100.58l-7.61-70.79H315.05
				L322.66,351.97z"/>
		</g>
		<g>
			<path class="st256" d="M378.38,318.32c0.91,4.46-1.17,8.65-4.65,9.36c-3.48,0.71-7.03-2.33-7.95-6.79
				c-0.91-4.46,1.17-8.65,4.65-9.36C373.91,310.82,377.47,313.86,378.38,318.32z"/>
		</g>
		<g>
			
				<rect x="417.08" y="348.11" transform="matrix(-1 -1.224647e-16 1.224647e-16 -1 853.1005 703.4232)" class="st255" width="18.94" height="7.21"/>
		</g>
		<g>
			<path class="st2" d="M358.21,140.1c-8.61,0-15.61-7-15.61-15.61c0-8.61,7-15.61,15.61-15.61s15.61,7,15.61,15.61
				C373.82,133.09,366.81,140.1,358.21,140.1z M358.21,109.76c-8.12,0-14.73,6.61-14.73,14.73c0,8.12,6.61,14.73,14.73,14.73
				c8.12,0,14.73-6.61,14.73-14.73C372.93,116.37,366.33,109.76,358.21,109.76z"/>
		</g>
		<g>
			<path class="st257" d="M82.89,298.81l-0.01-1.33c2.65-0.02,5.31-0.1,7.93-0.22l0.06,1.33C88.24,298.72,85.56,298.79,82.89,298.81
				z M74.91,298.73c-2.62-0.07-5.31-0.2-7.98-0.37l0.08-1.32c2.66,0.17,5.32,0.29,7.93,0.36L74.91,298.73z M98.84,298.06l-0.12-1.32
				c2.62-0.23,5.27-0.51,7.89-0.85l0.17,1.32C104.15,297.55,101.48,297.83,98.84,298.06z M58.97,297.73
				c-2.72-0.27-5.39-0.62-7.93-1.03l0.21-1.31c2.51,0.41,5.15,0.75,7.85,1.02L58.97,297.73z M114.68,296.04l-0.22-1.31
				c2.56-0.43,5.18-0.92,7.8-1.46l0.27,1.3C119.89,295.12,117.25,295.61,114.68,296.04z M43.19,295.12c-2.67-0.65-5.26-1.4-7.7-2.24
				l0.43-1.25c2.39,0.82,4.94,1.56,7.58,2.2L43.19,295.12z M130.32,292.84l-0.31-1.29c2.44-0.58,4.95-1.22,7.7-1.95l0.34,1.28
				C135.29,291.61,132.76,292.25,130.32,292.84z M28.06,289.86c-2.49-1.19-4.84-2.51-7.01-3.95l0.73-1.11
				c2.11,1.4,4.41,2.69,6.85,3.85L28.06,289.86z M145.73,288.76l-0.36-1.28c1.11-0.31,2.21-0.62,3.3-0.93
				c1.47-0.42,2.93-0.83,4.36-1.23l0.36,1.28c-1.43,0.4-2.89,0.81-4.36,1.23C147.94,288.14,146.84,288.45,145.73,288.76z
				 M214.92,287.65c-2.45-1.16-4.9-2.18-7.29-3.03l0.45-1.25c2.43,0.87,4.92,1.91,7.41,3.08L214.92,287.65z M161.06,284.53
				l-0.33-1.29c2.86-0.73,5.4-1.32,7.78-1.82l0.27,1.3C166.43,283.22,163.9,283.81,161.06,284.53z M200.07,282.39
				c-2.56-0.59-5.18-1.03-7.77-1.29l0.13-1.32c2.64,0.27,5.31,0.71,7.93,1.31L200.07,282.39z M176.58,281.41l-0.17-1.32
				c2.78-0.36,5.4-0.56,8-0.62l0.03,1.33C181.89,280.87,179.31,281.06,176.58,281.41z M14.71,280.95c-1.99-1.85-3.8-3.86-5.39-6
				l1.06-0.79c1.54,2.07,3.3,4.02,5.23,5.82L14.71,280.95z M5.12,268.07c-1.16-2.37-2.14-4.9-2.9-7.52l1.27-0.37
				c0.74,2.55,1.69,5.01,2.82,7.31L5.12,268.07z M0.57,252.66c-0.34-2.57-0.53-5.28-0.54-8.03l1.33-0.01
				c0.01,2.7,0.19,5.34,0.53,7.86L0.57,252.66z M1.75,236.74l-1.32-0.13c0.27-2.6,0.67-5.27,1.19-7.94l1.3,0.26
				C2.4,231.56,2.01,234.19,1.75,236.74z M4.79,221.24l-1.28-0.37c1.35-4.66,2.56-7.5,2.61-7.62l1.22,0.52
				C7.33,213.81,6.11,216.67,4.79,221.24z"/>
		</g>
		<g>
			<path class="st257" d="M426.47,60.18c-0.02-0.02-2.24-1.99-6.21-4.94l0.79-1.06c4.02,2.99,6.28,4.99,6.3,5.01L426.47,60.18z
				 M413.77,50.67c-2.18-1.46-4.44-2.89-6.71-4.25l0.68-1.14c2.29,1.37,4.56,2.82,6.76,4.28L413.77,50.67z M400.17,42.49
				c-2.33-1.26-4.71-2.47-7.07-3.6l0.57-1.2c2.38,1.14,4.78,2.36,7.13,3.63L400.17,42.49z M385.85,35.64
				c-2.45-1.03-4.94-1.99-7.39-2.87l0.45-1.25c2.48,0.88,4.99,1.86,7.46,2.89L385.85,35.64z M285.01,34.02l-0.03-1.33
				c2.57-0.06,5.21-0.3,7.83-0.73l0.21,1.31C290.34,33.71,287.64,33.96,285.01,34.02z M276.98,33.6c-2.59-0.32-5.25-0.85-7.89-1.55
				l0.34-1.28c2.59,0.69,5.18,1.2,7.71,1.52L276.98,33.6z M300.86,31.46l-0.37-1.27c0.85-0.25,1.72-0.52,2.58-0.81
				c1.66-0.56,3.35-1.08,5.03-1.55l0.36,1.28c-1.66,0.47-3.33,0.98-4.97,1.53C302.61,30.93,301.73,31.21,300.86,31.46z
				 M370.92,30.32c-2.55-0.75-5.13-1.43-7.66-2.02l0.3-1.29c2.56,0.59,5.17,1.28,7.74,2.04L370.92,30.32z M261.47,29.54
				c-2.34-0.91-4.73-1.97-7.33-3.22l0.58-1.19c2.56,1.24,4.93,2.28,7.23,3.18L261.47,29.54z M316.14,27.25l-0.26-1.3
				c2.6-0.52,5.26-0.95,7.91-1.28l0.16,1.32C321.34,26.31,318.71,26.73,316.14,27.25z M355.49,26.76c-2.62-0.43-5.26-0.78-7.85-1.03
				l0.13-1.32c2.62,0.25,5.29,0.6,7.94,1.04L355.49,26.76z M122.25,25.5l-0.72-1.11c2.27-1.47,4.55-2.9,6.77-4.24l0.69,1.14
				C126.78,22.61,124.51,24.03,122.25,25.5z M331.83,25.32L331.77,24c2.64-0.12,5.33-0.15,8.01-0.08l-0.03,1.33
				C337.09,25.17,334.44,25.2,331.83,25.32z M247.04,22.64c-2.25-1.22-4.48-2.48-6.96-3.88l0.65-1.16c2.47,1.4,4.7,2.65,6.94,3.87
				L247.04,22.64z M135.85,17.31l-0.64-1.16c2.38-1.31,4.76-2.56,7.07-3.71l0.59,1.19C140.58,14.77,138.21,16.01,135.85,17.31z
				 M233.14,14.89c-2.6-1.42-4.9-2.63-7.02-3.7l0.59-1.19c2.14,1.07,4.46,2.29,7.07,3.72L233.14,14.89z M150.06,10.28l-0.53-1.22
				c2.5-1.09,5-2.09,7.43-2.97l0.46,1.25C155.01,8.21,152.54,9.2,150.06,10.28z M218.93,7.86c-2.54-1.08-4.96-1.98-7.4-2.78
				l0.41-1.26c2.47,0.81,4.92,1.73,7.5,2.82L218.93,7.86z M164.93,4.87l-0.37-1.28c2.62-0.75,5.23-1.4,7.78-1.91l0.26,1.3
				C170.1,3.49,167.52,4.13,164.93,4.87z M203.93,3.01c-2.58-0.56-5.19-0.99-7.78-1.27l0.14-1.32c2.63,0.28,5.3,0.71,7.92,1.29
				L203.93,3.01z M180.41,1.77l-0.14-1.32c2.69-0.29,5.38-0.44,8.01-0.45l0,1.33C185.7,1.34,183.05,1.49,180.41,1.77z"/>
		</g>
		<g>
			<g>
				<g>
					<g>
						<polygon class="st258" points="261.1,302.22 227.74,292.52 237.74,289.5 						"/>
					</g>
				</g>
			</g>
			<g>
				<g>
					<g>
						<polygon class="st259" points="261.1,302.22 248.63,289.69 240.96,291.25 						"/>
					</g>
				</g>
			</g>
			<g>
				<g>
					<g>
						<polygon class="st260" points="235.41,294.75 235.68,298.61 261.1,302.22 						"/>
					</g>
				</g>
			</g>
		</g>
		<g>
			<g>
				<g>
					<g>
						<polygon class="st258" points="93.2,47.56 122.61,31.12 112.5,30.45 						"/>
					</g>
				</g>
			</g>
			<g>
				<g>
					<g>
						<polygon class="st259" points="93.2,47.56 102.25,33.01 109.84,32.81 						"/>
					</g>
				</g>
			</g>
			<g>
				<g>
					<g>
						<polygon class="st260" points="115.84,34.9 116.43,38.61 93.2,47.56 						"/>
					</g>
				</g>
			</g>
		</g>
	</g>
</g>
</svg>
